<?xml version="1.0" encoding="utf-8"?>
<!-- Generator: Adobe Illustrator 15.0.0, SVG Export Plug-In . SVG Version: 6.00 Build 0)  -->
<!DOCTYPE svg PUBLIC "-//W3C//DTD SVG 1.1//EN" "http://www.w3.org/Graphics/SVG/1.1/DTD/svg11.dtd">
<svg version="1.1" id="Layer_1" xmlns="http://www.w3.org/2000/svg" xmlns:xlink="http://www.w3.org/1999/xlink" x="0px" y="0px"
	 width="200.416px" height="109.54px" viewBox="0 0 200.416 109.54" enable-background="new 0 0 200.416 109.54"
	 xml:space="preserve">
<g>
	<g>
		<path fill="#FFFFFF" stroke="#CED5DC" stroke-width="0.25" stroke-linejoin="round" stroke-miterlimit="10" d="M105.79,14.301
			h-8.088c-0.138,0-0.25,0.112-0.25,0.25c0,2.618,0,5.323,0.044,7.996c-0.348,0.016-0.604,0.064-0.847,0.156
			c-0.097,0.037-0.161,0.13-0.161,0.234v34.948l-0.072,4.398l-0.072,4.405c0,0.22-0.035,0.544-0.072,0.89
			c-0.113,1.043-0.174,1.828,0.071,2.227c-0.002,0.168-0.006,0.346-0.012,0.529c-0.022,0.832-0.047,1.774,0.173,2.367
			c0.037,0.098,0.13,0.164,0.234,0.164h97.479c0.138,0,0.25-0.113,0.25-0.25v-8.089c0-0.065-0.026-0.13-0.073-0.177
			s-0.109-0.073-0.177-0.073c0,0,0,0-0.001,0h-0.001c-0.685,0-1.315-0.04-1.798-0.11c-0.062-0.354-0.169-0.642-0.273-0.922
			c-0.125-0.33-0.242-0.644-0.274-1.047c-0.007-0.074-0.043-0.142-0.103-0.185c-0.043-0.03-0.096-0.048-0.146-0.048
			c-0.021,0-0.04,0.002-0.061,0.009l-0.269,0.065V61.67l0.271,0.066c0.02,0.006,0.039,0.008,0.059,0.008
			c0.056,0,0.109-0.02,0.154-0.055c0.061-0.047,0.096-0.119,0.096-0.195V60.34c0-0.139-0.112-0.25-0.25-0.25h-0.208
			c-0.007-0.012-0.013-0.023-0.021-0.034c0.01-0.083,0.077-0.271,0.129-0.412c0.179-0.487,0.443-1.22,0.031-1.739
			c-0.044-0.129-0.087-0.258-0.13-0.387c-0.028-0.085-0.101-0.148-0.188-0.167l-0.144-0.028l-0.387-0.078
			c-0.011-0.043-0.033-0.084-0.065-0.115c-0.048-0.047-0.109-0.072-0.177-0.072c-0.001,0-0.001,0-0.002,0
			c-1.483,0.01-1.792,0.679-2.119,1.387c-0.11,0.243-0.228,0.493-0.397,0.745c-0.047,0.069-0.137,0.14-0.238,0.218
			c-0.084,0.065-0.18,0.139-0.271,0.229c0.051-0.395,0.125-0.778,0.186-0.866c0.041-0.046,0.059-0.099,0.061-0.16
			c0.006-0.731-0.093-0.993-0.318-1.419c-0.041-0.08-0.123-0.131-0.213-0.133l-0.258-0.01c-0.162-0.008-0.341-0.016-0.514-0.016
			c-0.52,0-0.816,0.07-0.995,0.237c-0.219,0.294-0.097,0.627,0.045,1.015c0.111,0.305,0.236,0.645,0.209,0.946
			c-0.108,0.026-0.188,0.125-0.188,0.242v0.278l-0.068,0.035l-0.083,0.041c-0.085,0.043-0.14,0.129-0.14,0.225v0.576
			c0,0.102,0.062,0.188,0.146,0.228v0.062c0,0.102,0.061,0.188,0.145,0.228v0.062c0,0.117,0.08,0.215,0.188,0.242l0.046,0.229
			l0.061,0.301c0.021,0.111,0.115,0.193,0.229,0.199c0.036,0.091,0.066,0.18,0.098,0.266c0.062,0.182,0.125,0.365,0.23,0.536h-0.166
			c-0.126,0-0.23,0.093-0.247,0.214l-0.071,0.023l-0.19,0.063c-0.069,0.022-0.125,0.073-0.153,0.14l-0.041,0.101
			c-0.101,0.229-0.193,0.45-0.242,0.769l-0.015,0.002c-0.135,0.004-0.28,0.01-0.422,0.01c-0.341,0-0.496-0.037-0.565-0.069
			c0.053-0.013,0.121-0.021,0.236-0.03c0.085-0.007,0.16-0.058,0.2-0.133c0.039-0.076,0.038-0.167-0.005-0.24
			c-0.148-0.259-0.315-0.441-0.545-0.593v-0.646c0.054-0.024,0.097-0.067,0.121-0.121h0.207c0.139,0,0.25-0.111,0.25-0.25v-0.288
			c0-0.106-0.067-0.203-0.17-0.237l-0.102-0.033c-0.055-0.019-0.107-0.037-0.163-0.056v-0.106c0-0.101-0.06-0.188-0.144-0.228
			v-1.938c0-0.102-0.061-0.188-0.146-0.229v-0.207c0-0.102-0.06-0.188-0.145-0.227v-0.062c0-0.102-0.061-0.188-0.146-0.229v-0.205
			c0-0.1-0.059-0.188-0.144-0.228v-0.207c0-0.103-0.06-0.188-0.146-0.228v-0.206c0-0.101-0.059-0.187-0.144-0.228v-0.785
			c0-0.074-0.033-0.145-0.09-0.191l-0.435-0.361l-0.403-0.337c-0.221-0.352-0.233-0.831-0.229-1.418
			c0.001-0.111-0.071-0.209-0.178-0.241c-0.062-0.019-0.106-0.03-0.14-0.037c-0.014-0.013-0.026-0.028-0.045-0.045
			c-0.046-0.045-0.105-0.071-0.17-0.073c-0.074-0.002-0.145-0.003-0.212-0.003c-1.211,0-1.34,0.393-1.464,1.087
			c-0.027,0.152-0.059,0.319-0.107,0.506c-0.479,0.01-0.943,0.057-1.444,0.147c-0.101,0.018-0.181,0.096-0.201,0.195
			c-0.122,0.604-0.353,0.855-0.62,1.146c-0.136,0.148-0.286,0.313-0.429,0.531h-2.45l-0.027-0.056l-0.048-0.095
			c-0.026-0.053-0.067-0.094-0.118-0.116V56.87c0-0.106-0.066-0.199-0.162-0.234c-0.019-0.049-0.053-0.092-0.098-0.12
			c-0.041-0.026-0.089-0.04-0.136-0.04c-0.035,0-0.07,0.008-0.104,0.021c-0.229,0.104-0.582,0.11-0.988,0.119h-0.004l-0.017-0.08
			l-0.088-0.438c-0.021-0.104-0.106-0.185-0.212-0.198c-0.189-0.428-0.607-0.668-1.249-0.716l-0.125-1.37
			c-0.011-0.104-0.083-0.192-0.185-0.219c-0.199-0.053-0.264-0.107-0.367-0.196c-0.047-0.04-0.1-0.085-0.17-0.133v-0.152
			c0-0.138-0.111-0.25-0.25-0.25h-0.289c-0.127,0-0.234,0.097-0.248,0.224c-0.047,0.439-0.133,0.476-0.545,0.651
			c-0.084,0.036-0.168,0.125-0.178,0.216l-0.067,0.675l-0.058,0.57l-0.605,0.078l-0.352,0.044c-0.097,0.012-0.176,0.077-0.207,0.17
			l-0.271,0.811l-0.104,0.314c-0.016,0-0.031,0-0.047,0c-0.682,0-1.156,0.096-1.488,0.562c-0.096-0.014-0.144-0.026-0.205-0.051
			l-0.068-4.065l-0.072-4.287l0.074-2.382l0.07-2.227c0.002-0.067-0.023-0.133-0.07-0.182c-0.025-0.026-0.057-0.047-0.09-0.06
			l-0.13-1.949c-0.007-0.094-0.063-0.173-0.146-0.21v-0.349c0-0.101-0.06-0.187-0.145-0.227v-0.208c0-0.101-0.061-0.188-0.146-0.227
			v-0.208c0-0.127-0.096-0.232-0.219-0.248c-0.088-0.266-0.156-0.576-0.229-0.901c-0.17-0.778-0.348-1.58-0.854-2.006V37.37
			c0-0.138-0.111-0.25-0.25-0.25h-0.146c-0.092,0-0.176,0.05-0.219,0.131c-0.051,0.092-0.117,0.182-0.188,0.275
			c-0.211,0.285-0.475,0.64-0.42,1.168c0.002,0.016,0.005,0.032,0.01,0.047c-0.007,0.023-0.011,0.047-0.011,0.072v0.062
			c-0.085,0.04-0.146,0.126-0.146,0.227v0.135l-0.148,0.074c-0.084,0.042-0.139,0.129-0.139,0.225v0.208
			c-0.086,0.04-0.146,0.126-0.146,0.227v0.062c-0.086,0.04-0.146,0.126-0.146,0.227v0.207c-0.08,0.037-0.138,0.114-0.145,0.207
			c-0.044,0.556-0.087,1.109-0.129,1.663c-0.096,0.036-0.162,0.127-0.162,0.234v0.135l-0.148,0.074
			c-0.086,0.042-0.141,0.129-0.141,0.225v3.611v7.138c-0.085,0.04-0.145,0.126-0.145,0.227v1.192h-0.676l-0.106-1.41
			c0.022-0.013,0.043-0.03,0.062-0.049c0.047-0.053,0.07-0.123,0.063-0.193l-0.072-0.722l-0.071-0.722
			c-0.008-0.075-0.049-0.143-0.111-0.185l-0.314-0.208l-0.007-0.004v-2.205c0.118-0.126,0.222-0.339,0.135-0.623
			c-0.021-0.07-0.071-0.125-0.135-0.154v-0.062c0-0.095-0.054-0.181-0.14-0.224l-0.189-0.097l-0.217-0.72l-0.176-0.585v-1.407
			c0-0.101-0.061-0.188-0.146-0.227v-1.362c0-0.101-0.061-0.187-0.145-0.227v-1.361c0-0.121-0.086-0.221-0.198-0.245
			c-0.033-0.132-0.065-0.264-0.101-0.396c-0.018-0.067-0.062-0.124-0.123-0.157c-0.035-0.02-0.078-0.03-0.119-0.03
			c-0.025,0-0.053,0.004-0.077,0.013l-0.433,0.145c-0.086,0.029-0.154,0.104-0.17,0.194c-0.013,0.071-0.027,0.108-0.035,0.125
			c-0.068,0.045-0.112,0.123-0.112,0.208v1.215c-0.087,0.04-0.146,0.126-0.146,0.227v1.796c-0.086,0.04-0.145,0.126-0.145,0.226
			v1.216c-0.086,0.04-0.146,0.126-0.146,0.227v0.351c-0.066,0.031-0.117,0.09-0.137,0.165l-0.1,0.394
			c-0.113,0.024-0.198,0.124-0.198,0.245v0.155l-0.323,0.215c-0.048,0.032-0.083,0.081-0.1,0.136
			c-0.092,0.307,0.001,0.526,0.277,0.651v2.083c-0.086,0.04-0.145,0.126-0.145,0.226v0.154l-0.102,0.067l-0.223,0.146
			c-0.068,0.046-0.111,0.124-0.111,0.208v2.878l-0.437,0.218c-0.112,0.056-0.169,0.188-0.129,0.306l0.174,0.521l0.115,0.347
			c0.022,0.067,0.071,0.12,0.133,0.148v3.154c-0.065-0.039-0.14-0.08-0.265-0.119c-0.063-0.238-0.16-0.453-0.248-0.646
			c-0.055-0.122-0.107-0.236-0.146-0.35c-0.047-2.441-0.094-4.885-0.143-7.326V35.929c0-0.066-0.026-0.13-0.074-0.178
			c-0.047-0.046-0.11-0.072-0.176-0.072c-0.001,0-0.001,0-0.003,0l-0.231,0.001c-0.383,0-0.801-0.011-1.104-0.082v-3.487
			c0.086-0.04,0.145-0.126,0.145-0.226v-1.012c0-0.1-0.059-0.187-0.145-0.226v-0.786c0-0.101-0.06-0.188-0.146-0.227v-0.351
			c0-0.101-0.06-0.188-0.146-0.227v-0.349c0-0.101-0.061-0.187-0.146-0.227v-0.352c0-0.101-0.06-0.188-0.146-0.227v-0.496
			c0-0.101-0.061-0.188-0.146-0.228v-0.062c0-0.071-0.03-0.14-0.084-0.187l-0.685-0.607l-0.594-0.527
			c-0.098-0.141-0.192-0.335-0.295-0.54c-0.16-0.323-0.324-0.655-0.537-0.871c-0.01-0.039-0.014-0.058-0.016-0.069
			c-0.007-0.063-0.061-0.16-0.109-0.201c-0.012-0.01-0.03-0.027-0.064-0.062c-0.048-0.047-0.111-0.073-0.177-0.073
			c-0.023,0-0.048,0.003-0.069,0.01c-0.087,0.025-0.154,0.096-0.175,0.185c-0.213,0.932-0.888,1.697-1.378,2.191
			c-0.069,0.069-0.151,0.134-0.233,0.2c-0.196,0.155-0.418,0.331-0.538,0.594c-0.01,0.021-0.017,0.044-0.02,0.067l-0.073,0.505
			l-0.044,0.303c-0.102,0.032-0.176,0.126-0.176,0.239v0.351c-0.086,0.04-0.146,0.126-0.146,0.227v0.639
			c-0.085,0.04-0.145,0.126-0.145,0.227v3.963c-0.085,0.04-0.145,0.126-0.145,0.227v1.672c-0.268,0.054-0.502,0.1-0.886,0.1
			c-0.104,0-0.208,0.066-0.25,0.159c-0.097,0.035-0.166,0.127-0.166,0.236v4.948h-2.638c-0.139,0-0.25,0.112-0.25,0.25V46.1
			c-0.086,0.04-0.146,0.126-0.146,0.227v0.352c-0.085,0.04-0.145,0.126-0.145,0.227v0.279l-0.078,0.039l-0.071,0.036
			c-0.085,0.042-0.139,0.129-0.139,0.224V48.1h-0.983l-0.242-1.362l-0.155-0.885c-0.021-0.12-0.125-0.207-0.246-0.207h-0.289
			c-0.138,0-0.25,0.112-0.25,0.25v1.073c-0.085,0.04-0.146,0.126-0.146,0.227v8.125h-0.512V30.008c0-0.1-0.059-0.187-0.145-0.226
			v-0.208c0-0.138-0.111-0.25-0.25-0.25h-0.012l-0.07-0.106l-0.145-0.217c-0.031-0.047-0.076-0.082-0.13-0.099l-0.181-0.06
			l-0.081-0.027v-0.108c0-0.101-0.06-0.188-0.146-0.227v-1.363c0-0.1-0.06-0.187-0.145-0.226v-0.063c0-0.079-0.037-0.153-0.102-0.2
			l-0.207-0.155l-0.271-0.203v-0.164c0-0.101-0.06-0.187-0.146-0.227V24.95c0-0.083-0.041-0.162-0.11-0.208l-0.125-0.084
			l-0.196-0.131v-0.155c0-0.101-0.061-0.188-0.146-0.227v-0.783c0-0.121-0.084-0.221-0.198-0.245l-0.099-0.396
			c-0.021-0.085-0.088-0.153-0.174-0.178c-0.236-0.068-0.255-0.102-0.291-0.167c-0.041-0.075-0.103-0.182-0.26-0.306l-0.378-4.894
			l-0.048-0.623c-0.01-0.13-0.118-0.23-0.249-0.23h-0.433c-0.138,0-0.248,0.11-0.25,0.247c-0.008,0.509,0.021,1.034,0.049,1.542
			c0.062,1.141,0.121,2.218-0.182,3.149c-0.01,0.025-0.014,0.051-0.014,0.078v0.351c-0.066,0.031-0.119,0.091-0.139,0.167
			l-0.123,0.492l-0.217,0.164l-0.289,0.218c-0.062,0.047-0.101,0.121-0.101,0.199v0.062c-0.067,0.032-0.12,0.093-0.138,0.17
			l-0.27,1.164l-0.121,0.525c-0.112,0.025-0.195,0.125-0.195,0.244v0.062c-0.07,0.033-0.123,0.097-0.141,0.177l-0.064,0.324
			l-0.041,0.205c-0.088,0.022-0.158,0.091-0.182,0.182l-0.058,0.23l-0.041,0.163c-0.101,0.021-0.179,0.1-0.196,0.204l-0.078,0.473
			l-0.031,0.194c-0.105,0.03-0.182,0.126-0.182,0.24v1.029c-0.092,0.066-0.179,0.168-0.242,0.358c-0.153,0.05-0.231,0.1-0.324,0.165
			c-0.041,0.03-0.09,0.063-0.167,0.105c-0.052,0.027-0.093,0.073-0.115,0.127c-0.319,0.797-0.313,1.974-0.31,3.111l0.002,0.449
			v6.209v12.988l-0.149,0.075c-0.079,0.04-0.132,0.119-0.138,0.208l-0.139,2.049l-0.008,0.116l-0.001,3.911l-0.375-0.062
			c-0.03-0.105-0.127-0.184-0.241-0.184h-0.194c-0.144-0.195-0.159-0.908-0.171-1.35c-0.01-0.477-0.021-0.926-0.118-1.223
			c-0.022-0.065-0.071-0.119-0.132-0.146V55.28c0-0.052-0.018-0.103-0.047-0.146l-0.359-0.503l-0.364-0.51
			c-0.047-0.065-0.122-0.104-0.202-0.104h-0.221c-0.173-0.103-0.534-0.329-0.686-0.439v-1.042c0-0.1-0.06-0.187-0.145-0.226v-0.208
			c0-0.042-0.011-0.084-0.031-0.122c-0.029-0.054-0.07-0.083-0.119-0.122c-0.043-0.031-0.14-0.104-0.164-0.155
			c-0.043-0.085-0.129-0.14-0.225-0.14h-0.434c-0.121,0-0.225,0.087-0.246,0.206c-0.014,0.069-0.027,0.105-0.035,0.122
			c-0.068,0.045-0.113,0.123-0.113,0.21v1.29l-0.021,0.01l-0.13,0.065c-0.025,0.013-0.049,0.03-0.069,0.051
			c-0.179,0.187-0.383,0.314-0.601,0.45c-0.397,0.249-0.849,0.53-1.039,1.207c-0.256,0.422-0.387,1.881-0.438,2.599h-0.527v-6.104
			c0-0.138-0.111-0.25-0.25-0.25h-3.793v-1.483c0-0.128-0.097-0.235-0.225-0.249c-0.238-0.025-0.283-0.04-0.4-0.086
			c-0.013-0.06-0.02-0.125-0.026-0.196c-0.015-0.127-0.029-0.271-0.086-0.424c-0.023-0.063-0.07-0.112-0.13-0.139v-0.208
			c0-0.096-0.055-0.183-0.141-0.225l-0.146-0.073v-1c0-0.119-0.084-0.222-0.2-0.245l-0.328-0.065l-0.194-0.039V45.46
			c0-0.12-0.086-0.221-0.199-0.245l-0.036-0.146l-0.062-0.248c-0.019-0.07-0.064-0.129-0.131-0.162l-0.186-0.093l-0.117-0.467
			c-0.02-0.075-0.07-0.136-0.139-0.167v-0.349c0-0.112-0.073-0.208-0.176-0.239l-0.08-0.555l-0.037-0.255
			c-0.013-0.092-0.074-0.167-0.157-0.198c-0.031-0.08-0.103-0.14-0.189-0.156c-0.015-0.002-0.028-0.004-0.044-0.004
			c-0.104,0-0.197,0.064-0.234,0.164l-0.965,2.62c-0.008,0.001-0.014,0.002-0.018,0.002c-0.062,0.008-0.158,0.062-0.198,0.109
			c-0.01,0.012-0.026,0.031-0.061,0.065c-0.296,0.331-0.234,0.799-0.181,1.213c0.03,0.245,0.063,0.498,0.018,0.659l-0.062,0.031
			l-0.434,0.216c-0.084,0.042-0.139,0.129-0.139,0.224v0.64c-0.072,0.034-0.127,0.102-0.142,0.186l-0.14,0.833
			c-0.059,0.116-0.159,0.251-0.26,0.383c-0.075,0.101-0.152,0.203-0.219,0.308h-0.146c-0.139,0-0.25,0.112-0.25,0.25v1.483h-3.648
			c-0.139,0-0.25,0.112-0.25,0.25v5.981c-0.055,0.024-0.099,0.068-0.123,0.123h-0.818l0.145-11.727l0.286-23.258
			c0.002-0.137-0.106-0.25-0.245-0.253c-0.295-0.005-0.465-0.029-0.621-0.074v-8.053C106.04,14.413,105.929,14.301,105.79,14.301
			L105.79,14.301z"/>
	</g>
	<g>
		<path fill="#FFFFFF" stroke="#CED5DC" stroke-width="0.25" stroke-linejoin="round" stroke-miterlimit="10" d="M57.556,64.5
			c-0.069,0-0.125-0.057-0.125-0.125l-0.001-1.588c0-0.033,0.013-0.064,0.037-0.088c0.024-0.025,0.055-0.037,0.088-0.037h0.021
			v-0.021c0-0.049,0.027-0.092,0.069-0.112l0.289-0.144c0.018-0.01,0.036-0.014,0.055-0.014c0.016,0,0.032,0.004,0.047,0.01
			c0.033,0.014,0.058,0.041,0.07,0.074c0.054,0.149,0.059,0.465,0.064,0.828c0.004,0.281,0.01,0.653,0.05,0.819h0.058
			c0.069,0,0.125,0.056,0.125,0.125v0.146c0,0.069-0.056,0.125-0.125,0.125h-0.722V64.5z"/>
		<path fill="#FFFFFF" stroke="#CED5DC" stroke-width="0.25" stroke-linejoin="round" stroke-miterlimit="10" d="M57.988,62.499
			c0.103,0.285,0.005,1.482,0.146,1.731c0.048,0,0.097,0,0.145,0c0,0.049,0,0.097,0,0.146c-0.241,0-0.481,0-0.723,0
			c0-0.53,0-1.06-0.001-1.588c0.048,0,0.098,0,0.146,0c0-0.049,0-0.097,0-0.146C57.797,62.594,57.892,62.545,57.988,62.499
			 M57.988,62.249c-0.038,0-0.075,0.01-0.109,0.025l-0.176,0.087l-0.114,0.058c-0.058,0.029-0.101,0.078-0.123,0.137
			c-0.033,0.012-0.063,0.031-0.088,0.057c-0.047,0.047-0.073,0.11-0.073,0.178l0.001,1.588c0,0.138,0.112,0.25,0.25,0.25h0.723
			c0.138,0,0.25-0.112,0.25-0.25V64.23c0-0.122-0.087-0.224-0.203-0.245c-0.022-0.181-0.027-0.494-0.03-0.701
			c-0.007-0.435-0.014-0.707-0.072-0.869c-0.024-0.066-0.075-0.121-0.141-0.146C58.052,62.254,58.021,62.249,57.988,62.249
			L57.988,62.249z"/>
	</g>
	<g>
		<path fill="#FFFFFF" stroke="#CED5DC" stroke-width="0.25" stroke-linejoin="round" stroke-miterlimit="10" d="M60.298,64.644
			c-0.035,0-0.068-0.015-0.092-0.04c-0.023-0.025-0.036-0.061-0.033-0.096l0.146-1.877c0.004-0.055,0.042-0.1,0.094-0.111
			l0.576-0.143c0.01-0.002,0.02-0.004,0.03-0.004c0.049,0,0.096,0.027,0.116,0.072c0.283,0.625,0.321,1.146,0.299,2.075
			c-0.001,0.067-0.057,0.122-0.125,0.122L60.298,64.644L60.298,64.644z"/>
		<path fill="#FFFFFF" stroke="#CED5DC" stroke-width="0.25" stroke-linejoin="round" stroke-miterlimit="10" d="M61.021,62.499
			c0.266,0.588,0.31,1.084,0.288,2.021c-0.337,0-0.674,0-1.012,0c0.049-0.626,0.097-1.252,0.146-1.878
			C60.637,62.592,60.829,62.545,61.021,62.499 M61.021,62.249c-0.02,0-0.04,0.002-0.059,0.008l-0.58,0.144
			c-0.104,0.026-0.18,0.116-0.188,0.224l-0.073,0.938L60.049,64.5c-0.006,0.068,0.018,0.138,0.065,0.188
			c0.047,0.052,0.114,0.08,0.184,0.08h1.012c0.136,0,0.247-0.108,0.25-0.244c0.021-0.931-0.02-1.485-0.31-2.129
			C61.208,62.304,61.118,62.249,61.021,62.249L61.021,62.249z"/>
	</g>
	<g>
		<path fill="#FFFFFF" stroke="#CED5DC" stroke-width="0.25" stroke-linejoin="round" stroke-miterlimit="10" d="M59.715,64.644
			c-0.392-0.021-0.516-0.062-0.76-0.153c-0.048-0.019-0.081-0.064-0.081-0.117c0-0.613,0.051-1.221,0.146-1.754
			c0.011-0.061,0.062-0.104,0.123-0.104h0.434c0.04,0,0.076,0.02,0.1,0.05c0.021,0.028,0.038,0.052,0.05,0.072
			c0.019,0.012,0.04,0.026,0.068,0.047c0.032,0.022,0.05,0.062,0.05,0.101v1.733c0,0.034-0.014,0.067-0.039,0.091
			c-0.023,0.021-0.054,0.034-0.086,0.034C59.72,64.644,59.718,64.644,59.715,64.644z"/>
		<path fill="#FFFFFF" stroke="#CED5DC" stroke-width="0.25" stroke-linejoin="round" stroke-miterlimit="10" d="M59.578,62.641
			c0.123,0.164-0.02,0.023,0.144,0.145c0,0.578,0,1.155,0,1.733c-0.379-0.019-0.49-0.058-0.722-0.146
			c0-0.66,0.059-1.254,0.145-1.732C59.289,62.641,59.434,62.641,59.578,62.641 M59.578,62.391h-0.434
			c-0.121,0-0.225,0.087-0.246,0.206c-0.097,0.541-0.148,1.155-0.148,1.776c0,0.104,0.064,0.196,0.161,0.232
			c0.25,0.096,0.388,0.143,0.798,0.162c0.004,0,0.008,0,0.012,0c0.064,0,0.126-0.023,0.172-0.068
			c0.05-0.048,0.078-0.113,0.078-0.182v-1.732c0-0.08-0.038-0.154-0.101-0.201c-0.018-0.014-0.035-0.025-0.051-0.037
			c-0.013-0.02-0.027-0.037-0.041-0.057C59.731,62.428,59.657,62.391,59.578,62.391L59.578,62.391z"/>
	</g>
	<g>
		<path fill="#FFFFFF" stroke="#CED5DC" stroke-width="0.25" stroke-linejoin="round" stroke-miterlimit="10" d="M39.504,78.42
			h-2.31c-0.138,0-0.25,0.111-0.25,0.25v6.972h-7.731V78.67c0-0.139-0.112-0.25-0.25-0.25h-2.312c-0.138,0-0.25,0.111-0.25,0.25
			v17.187c0,0.138,0.112,0.25,0.25,0.25h2.312c0.138,0,0.25-0.112,0.25-0.25v-7.692h7.731v7.692c0,0.138,0.112,0.25,0.25,0.25h2.31
			c0.138,0,0.25-0.112,0.25-0.25V78.67C39.754,78.534,39.642,78.42,39.504,78.42L39.504,78.42z"/>
	</g>
	<g>
		<path fill="#FFFFFF" stroke="#CED5DC" stroke-width="0.25" stroke-linejoin="round" stroke-miterlimit="10" d="M43.259,95.982
			c-0.069,0-0.125-0.056-0.125-0.125V78.67c0-0.069,0.056-0.125,0.125-0.125h2.312c0.069,0,0.125,0.056,0.125,0.125v17.187
			c0,0.069-0.056,0.125-0.125,0.125H43.259z"/>
	</g>
	<g>
		<path fill="#FFFFFF" stroke="#CED5DC" stroke-width="0.25" stroke-linejoin="round" stroke-miterlimit="10" d="M49.324,95.982
			c-0.069,0-0.125-0.056-0.125-0.125V78.67c0-0.069,0.056-0.125,0.125-0.125h2.311c0.069,0,0.125,0.056,0.125,0.125v15.184H59
			c0.069,0,0.125,0.057,0.125,0.125v1.878c0,0.069-0.056,0.125-0.125,0.125H49.324z"/>
		<path fill="#FFFFFF" stroke="#CED5DC" stroke-width="0.25" stroke-linejoin="round" stroke-miterlimit="10" d="M51.635,78.42
			h-2.311c-0.138,0-0.25,0.111-0.25,0.25v17.187c0,0.138,0.112,0.25,0.25,0.25H59c0.138,0,0.25-0.112,0.25-0.25v-1.878
			c0-0.139-0.112-0.25-0.25-0.25h-7.115V78.67C51.885,78.534,51.773,78.42,51.635,78.42L51.635,78.42z"/>
	</g>
	<g>
		<path fill="#FFFFFF" stroke="#CED5DC" stroke-width="0.25" stroke-linejoin="round" stroke-miterlimit="10" d="M63.766,78.67
			c0,5.103,0,10.207,0,15.309c2.454,0,4.91,0,7.365,0c0,0.626,0,1.252,0,1.878c-3.225,0-6.451,0-9.676,0c0-5.729,0-11.458,0-17.187
			C62.226,78.67,62.995,78.67,63.766,78.67"/>
	</g>
	<g>
		<path fill="#FFFFFF" stroke="#CED5DC" stroke-width="0.25" stroke-linejoin="round" stroke-miterlimit="10" d="M75.173,95.985
			c-0.069,0-0.125-0.056-0.125-0.125v-7.24h-0.02c-0.058,0-0.108-0.039-0.122-0.096l-0.13-0.521l-0.237-0.119
			c-0.042-0.021-0.069-0.063-0.069-0.11V87.61h-0.02c-0.069,0-0.125-0.056-0.125-0.125v-0.289l-0.252-0.199L74.044,86.7
			l-0.228-0.115c-0.033-0.017-0.057-0.045-0.065-0.082l-0.12-0.48h-0.048c-0.069,0-0.125-0.057-0.125-0.125v-0.289l-0.251-0.201
			l-0.029-0.295l-0.229-0.115c-0.042-0.021-0.069-0.063-0.069-0.111v-0.163h-0.02c-0.069,0-0.125-0.056-0.125-0.125v-0.288
			l-0.251-0.199l-0.029-0.297L72.228,83.7c-0.042-0.021-0.07-0.064-0.07-0.111V83.42h-0.021c-0.069,0-0.125-0.057-0.125-0.125
			v-0.289l-0.252-0.2l-0.029-0.296l-0.227-0.115c-0.042-0.021-0.069-0.064-0.069-0.111V82.12h-0.02
			c-0.069,0-0.125-0.056-0.125-0.125v-0.162h-0.02c-0.069,0-0.125-0.056-0.125-0.125v-0.289l-0.253-0.203l-0.028-0.293l-0.228-0.114
			l-0.226-0.567l-0.095-0.287H70.26c-0.069,0-0.125-0.056-0.125-0.125v-0.211l-0.219-0.109c-0.043-0.021-0.07-0.063-0.07-0.111
			v-0.164h-0.02c-0.054,0-0.102-0.033-0.119-0.085l-0.145-0.435c-0.013-0.039-0.007-0.08,0.017-0.112
			c0.023-0.033,0.061-0.054,0.102-0.054h2.601c0.05,0,0.096,0.031,0.115,0.076c0.098,0.233,0.238,0.457,0.371,0.67
			c0.071,0.113,0.14,0.224,0.2,0.33l0.013,0.271l0.224,0.112l0.319,0.853h0.059c0.069,0,0.125,0.056,0.125,0.125v0.163h0.021
			c0.058,0,0.107,0.039,0.122,0.096l0.12,0.482h0.047c0.057,0,0.107,0.039,0.121,0.094l0.122,0.484h0.047
			c0.069,0,0.125,0.056,0.125,0.125v0.164h0.021c0.069,0,0.125,0.056,0.125,0.125v0.162h0.02c0.069,0,0.125,0.056,0.125,0.125v0.164
			h0.021c0.069,0,0.125,0.056,0.125,0.125v0.164h0.02c0.054,0,0.101,0.033,0.119,0.084l0.26,0.783h0.056
			c0.069,0,0.125,0.055,0.125,0.125v0.289c0.064,0.09,0.149,0.236,0.235,0.387c0.255,0.447,0.518,0.906,0.687,1.441
			c0.292-0.295,0.431-0.671,0.578-1.066c0.087-0.233,0.174-0.469,0.286-0.676c0.022-0.041,0.064-0.066,0.11-0.066h0.02v-0.164
			c0-0.069,0.056-0.125,0.125-0.125h0.02v-0.164c0-0.069,0.056-0.125,0.125-0.125h0.021v-0.163c0-0.069,0.056-0.125,0.125-0.125
			h0.048l0.12-0.483c0.014-0.056,0.063-0.095,0.121-0.095h0.021V83.15c0-0.069,0.056-0.125,0.125-0.125h0.021v-0.163
			c0-0.068,0.056-0.125,0.125-0.125h0.02v-0.164c0-0.068,0.056-0.125,0.125-0.125h0.019v-0.164c0-0.068,0.056-0.125,0.125-0.125
			H78.7l0.26-0.779l0.297-0.186l0.133-0.529c0.108-0.213,0.22-0.396,0.334-0.584c0.27-0.442,0.548-0.9,0.671-1.438
			c0.013-0.058,0.063-0.097,0.122-0.097h2.601c0.038,0,0.075,0.018,0.098,0.047c0.024,0.031,0.032,0.07,0.023,0.107
			c-0.077,0.317-0.234,0.531-0.385,0.738c-0.072,0.098-0.144,0.195-0.206,0.305l0.016,0.229c0,0.047-0.026,0.09-0.068,0.111
			l-0.238,0.119l-0.131,0.521c-0.009,0.035-0.033,0.064-0.065,0.081l-0.287,0.146l-0.112,0.447l-0.115,0.348l-0.243,0.162
			l-0.109,0.055l-0.167,0.619l-0.059,0.174l-0.282,0.184v0.211c0,0.068-0.056,0.125-0.125,0.125h-0.021v0.164
			c0,0.047-0.026,0.09-0.069,0.111l-0.289,0.145l-0.226,0.797l-0.298,0.184l-0.133,0.529c-0.009,0.034-0.033,0.064-0.066,0.082
			l-0.291,0.144l-0.225,0.794l-0.298,0.186l-0.132,0.527c-0.009,0.035-0.032,0.064-0.065,0.081l-0.291,0.146l-0.081,0.361
			l-0.144,0.434L77.831,88.1l-0.077,0.038v0.212c0,0.068-0.056,0.125-0.125,0.125h-0.02v7.385c0,0.069-0.056,0.125-0.125,0.125
			H75.173z"/>
	</g>
	<g>
		<path fill="#FFFFFF" stroke="#CED5DC" stroke-width="0.25" stroke-linejoin="round" stroke-miterlimit="10" d="M125.142,78.42
			h-2.312c-0.138,0-0.25,0.111-0.25,0.25v8.668v0.414c-0.004,1.947-0.007,3.787,0.599,5.172c0.035,0.08,0.108,0.136,0.193,0.146
			l0.066,0.203l0.166,0.495c0.021,0.062,0.064,0.112,0.123,0.144l0.151,0.078v0.135c0,0.096,0.056,0.184,0.142,0.225
			c0.08,0.039,0.16,0.079,0.238,0.119l0.131,0.154l0.559,0.672c0.047,0.058,0.117,0.09,0.191,0.09h0.137l0.074,0.15
			c0.032,0.064,0.092,0.112,0.162,0.131l0.282,0.07l0.112,0.029c0.023,0.113,0.125,0.197,0.244,0.197h0.207
			c0.039,0.086,0.125,0.146,0.227,0.146h0.208c0.04,0.085,0.126,0.146,0.228,0.146h0.494c0.029,0.063,0.086,0.115,0.156,0.136
			c0.223,0.063,0.525,0.097,0.904,0.097c1.197,0,2.973-0.333,3.453-0.542c0.058-0.024,0.102-0.069,0.127-0.124h0.062
			c0.12,0,0.222-0.085,0.244-0.197l0.394-0.099c0.071-0.019,0.133-0.065,0.164-0.132l0.076-0.15h0.135
			c0.076,0,0.148-0.035,0.196-0.095l0.37-0.466l0.171-0.215l0,0l0.237-0.117c0.086-0.041,0.141-0.129,0.141-0.225v-0.156
			l0.227-0.149l0.097-0.063c0.046-0.031,0.081-0.076,0.099-0.129l0.146-0.436L135,92.928c0.085-0.012,0.157-0.066,0.192-0.146
			c0.604-1.369,0.603-3.334,0.6-5.232v-0.354v-8.521c0-0.139-0.111-0.25-0.25-0.25h-2.311c-0.139,0-0.25,0.111-0.25,0.25v8.088
			l0.002,0.814c0.014,2.577,0.021,4.133-1.373,5.506c-0.012,0.012-0.022,0.024-0.032,0.039l-0.128,0.192l-0.131,0.196
			c-0.408,0.25-1.53,0.604-2.416,0.604c-0.178,0-0.34-0.014-0.482-0.041c-0.023-0.111-0.124-0.195-0.244-0.195h-0.351
			c-0.04-0.086-0.127-0.146-0.228-0.146h-0.061c-0.04-0.086-0.127-0.146-0.229-0.146h-0.062c-0.017-0.035-0.043-0.068-0.076-0.094
			c-0.211-0.16-0.295-0.219-0.526-0.291c-0.074-0.242-0.133-0.322-0.293-0.527c-0.023-0.032-0.057-0.057-0.093-0.073v-0.062
			c0-0.096-0.053-0.182-0.138-0.225l-0.096-0.048l-0.055-0.027v-0.278c0-0.102-0.061-0.188-0.146-0.229v-0.062
			c0-0.11-0.073-0.205-0.174-0.237l-0.043-0.337l-0.075-0.611c-0.011-0.088-0.067-0.16-0.144-0.195V78.67
			C125.392,78.534,125.278,78.42,125.142,78.42L125.142,78.42z"/>
	</g>
	<g>
		<path fill="#FFFFFF" stroke="#CED5DC" stroke-width="0.25" stroke-linejoin="round" stroke-miterlimit="10" d="M143.19,95.985
			c-0.068,0-0.125-0.056-0.125-0.125v-7.24h-0.021c-0.058,0-0.106-0.039-0.121-0.095l-0.132-0.522l-0.152-0.076
			c-0.041-0.02-0.152-0.106-0.152-0.153V87.61h-0.021c-0.069,0-0.125-0.056-0.125-0.125v-0.289l-0.252-0.199l-0.028-0.297
			l-0.229-0.115c-0.032-0.017-0.057-0.045-0.064-0.08l-0.121-0.482h-0.047c-0.069,0-0.125-0.057-0.125-0.125v-0.289l-0.252-0.201
			l-0.029-0.295l-0.228-0.115c-0.043-0.021-0.069-0.063-0.069-0.111v-0.163h-0.02c-0.068,0-0.125-0.056-0.125-0.125v-0.288
			l-0.252-0.199l-0.029-0.297l-0.226-0.113c-0.043-0.021-0.07-0.064-0.07-0.111V83.42h-0.021c-0.069,0-0.125-0.057-0.125-0.125
			v-0.289l-0.254-0.2l-0.027-0.296l-0.229-0.115c-0.041-0.021-0.067-0.064-0.067-0.111V82.12h-0.021
			c-0.07,0-0.125-0.056-0.125-0.125v-0.162h-0.021c-0.069,0-0.125-0.056-0.125-0.125v-0.289l-0.251-0.203l-0.028-0.293l-0.229-0.114
			l-0.243-0.614l-0.079-0.238h-0.055c-0.069,0-0.125-0.057-0.125-0.125v-0.213l-0.219-0.107c-0.045-0.021-0.072-0.064-0.072-0.112
			v-0.164h-0.019c-0.054,0-0.102-0.034-0.118-0.085l-0.146-0.436c-0.013-0.037-0.007-0.08,0.017-0.112s0.062-0.052,0.103-0.052
			h2.601c0.051,0,0.096,0.029,0.115,0.076c0.1,0.234,0.24,0.461,0.374,0.674c0.069,0.111,0.138,0.221,0.196,0.324l0.013,0.271
			l0.224,0.111l0.319,0.854h0.058c0.069,0,0.125,0.057,0.125,0.125v0.163h0.021c0.057,0,0.106,0.039,0.121,0.095l0.122,0.483h0.047
			c0.057,0,0.105,0.039,0.121,0.094l0.123,0.484h0.046c0.069,0,0.125,0.056,0.125,0.125v0.163h0.021
			c0.069,0,0.125,0.057,0.125,0.125v0.162h0.021c0.069,0,0.125,0.057,0.125,0.125v0.164h0.02c0.069,0,0.125,0.057,0.125,0.125v0.164
			h0.021c0.054,0,0.102,0.035,0.117,0.086l0.263,0.781h0.055c0.069,0,0.125,0.057,0.125,0.125v0.289
			c0.065,0.092,0.149,0.239,0.237,0.393c0.255,0.443,0.517,0.902,0.688,1.437c0.291-0.296,0.43-0.67,0.576-1.065
			c0.086-0.233,0.174-0.469,0.285-0.676c0.021-0.041,0.064-0.066,0.109-0.066h0.021v-0.164c0-0.069,0.057-0.125,0.125-0.125h0.02
			v-0.164c0-0.068,0.056-0.125,0.125-0.125h0.021v-0.163c0-0.069,0.056-0.125,0.125-0.125h0.047l0.122-0.483
			c0.016-0.057,0.064-0.095,0.121-0.095h0.02V83.15c0-0.069,0.057-0.125,0.125-0.125h0.021v-0.163c0-0.068,0.056-0.125,0.125-0.125
			h0.021v-0.164c0-0.068,0.056-0.125,0.125-0.125h0.021v-0.164c0-0.068,0.056-0.125,0.125-0.125h0.056l0.26-0.779l0.209-0.146
			l0.091-0.047l0.132-0.521c0.107-0.211,0.219-0.394,0.332-0.578c0.271-0.444,0.55-0.904,0.674-1.443
			c0.014-0.057,0.062-0.098,0.122-0.098h2.599c0.039,0,0.074,0.019,0.098,0.049c0.025,0.029,0.033,0.068,0.025,0.105
			c-0.076,0.318-0.234,0.532-0.386,0.739c-0.071,0.099-0.144,0.194-0.206,0.306l0.018,0.228c0,0.047-0.026,0.09-0.068,0.11
			l-0.237,0.119l-0.131,0.521c-0.009,0.035-0.032,0.064-0.065,0.082l-0.287,0.145l-0.084,0.361l-0.145,0.436l-0.242,0.16
			l-0.109,0.055l-0.227,0.795l-0.281,0.175v0.219c0,0.069-0.057,0.125-0.125,0.125h-0.02v0.164c0,0.047-0.025,0.09-0.068,0.11
			l-0.289,0.146l-0.226,0.796l-0.299,0.184l-0.136,0.531c-0.008,0.035-0.032,0.063-0.064,0.08l-0.288,0.145l-0.099,0.414
			l-0.127,0.38l-0.235,0.159l-0.063,0.033l-0.133,0.521c-0.009,0.034-0.031,0.063-0.063,0.08l-0.29,0.146l-0.053,0.273l-0.174,0.521
			l-0.215,0.147l-0.066,0.033v0.212c0,0.068-0.057,0.125-0.125,0.125h-0.02v7.385c0,0.069-0.057,0.125-0.125,0.125H143.19z"/>
	</g>
	<g>
		<path fill="#FFFFFF" stroke="#CED5DC" stroke-width="0.25" stroke-linejoin="round" stroke-miterlimit="10" d="M89.759,95.982
			c-0.069,0-0.125-0.056-0.125-0.125v-1.444c0-0.045,0.024-0.086,0.063-0.107c0.2-0.114,0.317-0.26,0.454-0.428
			c0.074-0.092,0.15-0.185,0.241-0.275l1.594-1.447L92.054,92l0.049-0.099l0.227-0.188l0.387-0.289l0.107-0.244
			c0.021-0.043,0.064-0.07,0.112-0.07h0.225l0.686-0.958l1.565-1.426v-0.233c0-0.039,0.018-0.076,0.049-0.1l0.529-0.396v-0.228
			c0-0.047,0.027-0.091,0.069-0.11l0.29-0.146l0.008-0.146l0.072-0.217c0.017-0.052,0.064-0.086,0.119-0.086h0.021v-0.164
			c0-0.047,0.027-0.091,0.069-0.111l0.22-0.11v-0.212c0.36-0.678,0.939-2.045,0.75-2.906h-0.049c-0.069,0-0.125-0.057-0.125-0.125
			v-0.598h-0.02c-0.059,0-0.11-0.043-0.123-0.101c-0.05-0.241-0.434-1-0.532-1.081l-0.212,0.026c-0.048,0-0.091-0.026-0.112-0.07
			l-0.144-0.288c-0.043-0.007-0.097-0.016-0.159-0.025c-0.126-0.021-0.236-0.051-0.4-0.235c-0.068,0.013-0.15,0.019-0.24,0.019
			c-0.145,0-0.31-0.014-0.475-0.025c-0.333-0.025-0.666-0.053-0.991-0.053c-0.503,0-0.904,0.064-1.254,0.205v0.062
			c0,0.054-0.034,0.103-0.085,0.118l-0.866,0.289l-0.074,0.227c-0.021,0.042-0.064,0.068-0.111,0.068h-0.221l-0.252,0.379
			c-0.021,0.029-0.055,0.051-0.092,0.055c-0.004,0-0.008,0-0.012,0c-0.033,0-0.065-0.013-0.088-0.035l-0.145-0.146
			c-0.209-0.187-0.231-0.3-0.24-0.451c-0.004-0.065-0.007-0.133-0.045-0.235H90.48c-0.054,0-0.102-0.033-0.119-0.084l-0.287-0.867
			c-0.019-0.057,0.005-0.117,0.057-0.147c0.079-0.044,0.118-0.099,0.16-0.155c0.033-0.045,0.067-0.094,0.119-0.127l0.279-0.018
			l0.114-0.227c0.021-0.041,0.064-0.067,0.111-0.067h0.164v-0.021c0-0.054,0.034-0.102,0.085-0.117l0.781-0.262v-0.055
			c0-0.061,0.044-0.113,0.104-0.123l0.761-0.127v-0.04c0-0.069,0.056-0.125,0.125-0.125h0.599v-0.021
			c0-0.057,0.037-0.104,0.091-0.121c0.196-0.055,0.456-0.084,0.771-0.084c0.641,0,1.41,0.119,1.756,0.23l0.539-0.006
			c0.069,0,0.125,0.057,0.125,0.125v0.021h0.309c0.069,0,0.125,0.056,0.125,0.125v0.047l0.483,0.121
			c0.056,0.014,0.094,0.062,0.094,0.121v0.02h0.164c0.042,0,0.081,0.021,0.104,0.056l0.289,0.433l0.989,0.843
			c0.027,0.022,0.043,0.06,0.043,0.095v0.164h0.02c0.069,0,0.125,0.057,0.125,0.125v0.164h0.021c0.05,0,0.095,0.029,0.114,0.074
			c0.153,0.349,0.626,2.312,0.438,2.973c-0.015,0.055-0.064,0.092-0.12,0.092h-0.02v0.74c-0.87,2.654-2.786,4.717-4.514,6.443
			c-0.218,0.218-0.485,0.451-0.764,0.693c-0.501,0.438-1.062,0.926-1.404,1.402h7.134c0.069,0,0.125,0.057,0.125,0.125v1.878
			c0,0.069-0.056,0.125-0.125,0.125H89.759z"/>
	</g>
	<g>
		<path fill="#FFFFFF" stroke="#CED5DC" stroke-width="0.25" stroke-linejoin="round" stroke-miterlimit="10" d="M187.083,96.002
			v0.125c-2.197,0-3.438-0.541-4.423-1.93l-0.4-0.259c-0.034-0.022-0.056-0.062-0.056-0.104V93.67h-0.021
			c-0.068,0-0.125-0.055-0.125-0.125v-0.164h-0.02c-0.069,0-0.125-0.055-0.125-0.125V92.95h-0.021c-0.068,0-0.125-0.056-0.125-0.125
			v-0.434c-0.186-0.482-0.555-2.18-0.281-3.068c0.891-2.916,2.729-4.402,5.461-4.421l0.322-0.001c1.08,0,2.239,0.057,2.654,0.471
			c0.049,0.049,0.051,0.127,0.002,0.176c-0.144,0.147-0.238,0.549-0.253,1.07c-0.001,0.034-0.017,0.067-0.043,0.092
			c-0.022,0.02-0.052,0.029-0.082,0.029c-0.005,0-0.01,0-0.015,0c-0.35-0.041-0.66-0.125-0.961-0.207
			c-0.377-0.104-0.733-0.199-1.133-0.199c-0.248,0-0.49,0.037-0.744,0.113l-0.633,0.006v0.018c0,0.07-0.057,0.125-0.125,0.125h-0.31
			v0.021c0,0.055-0.034,0.102-0.086,0.119l-0.866,0.287l-0.374,0.535l-0.264,0.145v0.213c0,0.047-0.026,0.09-0.067,0.111
			l-0.221,0.111v0.212c0,0.069-0.057,0.125-0.125,0.125h-0.039l-0.128,0.762c-0.075,0.22-0.298,1.099-0.299,1.443h0.032
			c0.07,0,0.125,0.056,0.125,0.125v1.03h0.02c0.068,0,0.125,0.056,0.125,0.125v0.308h0.021c0.058,0,0.106,0.039,0.121,0.095
			l0.121,0.483h0.047c0.069,0,0.125,0.056,0.125,0.125v0.228l0.677,0.541L184.717,94h0.212c0.047,0,0.092,0.025,0.111,0.068
			l0.115,0.23l0.806,0.136c0.062,0.01,0.104,0.062,0.104,0.123v0.021h0.74c0.069,0,0.125,0.055,0.125,0.125v0.02h0.473v-0.02
			c0-0.07,0.056-0.125,0.125-0.125h1.029v-0.021c0-0.062,0.043-0.113,0.104-0.123c0,0,0.881-0.146,0.888-0.146
			c0.026,0,0.054,0.008,0.075,0.024c0.027,0.021,0.045,0.052,0.049,0.084l0.146,1.153c0.006,0.046-0.014,0.09-0.051,0.117
			c-0.027,0.021-0.051,0.037-0.068,0.049c-0.014,0.019-0.029,0.041-0.051,0.07c-0.021,0.028-0.056,0.047-0.092,0.049
			c-0.365,0.024-0.615,0.111-0.857,0.195c-0.09,0.031-0.18,0.062-0.271,0.09l-1.335,0.004L187.083,96.002z"/>
	</g>
	<g>
		<path fill="#FFFFFF" stroke="#CED5DC" stroke-width="0.25" stroke-linejoin="round" stroke-miterlimit="10" d="M160.521,95.981
			c-0.068,0-0.125-0.057-0.125-0.125V85.17c0-0.069,0.057-0.125,0.125-0.125h1.444c0.069,0,0.125,0.056,0.125,0.125v9.406h4.496
			c0.069,0,0.125,0.055,0.125,0.125v1.153c0,0.069-0.056,0.125-0.125,0.125L160.521,95.981L160.521,95.981z"/>
	</g>
	<g>
		<path fill="#FFFFFF" stroke="#CED5DC" stroke-width="0.25" stroke-linejoin="round" stroke-miterlimit="10" d="M172.797,85.17
			c0,3.176,0,6.354,0,9.531c1.541,0,3.081,0,4.622,0c0,0.385,0,0.77,0,1.153c-2.021,0-4.045,0-6.064,0c0-3.562,0-7.125,0-10.687
			C171.835,85.17,172.315,85.17,172.797,85.17"/>
	</g>
	<g>
		<path fill="#FFFFFF" stroke="#CED5DC" stroke-width="0.25" stroke-linejoin="round" stroke-miterlimit="10" d="M112.578,78.525
			c1.946,0,3.079,0.054,4.332,0.724c0.192,0.047,0.386,0.096,0.577,0.146c0.097,0.146,0.191,0.288,0.289,0.435
			c0.338,0.289,0.675,0.576,1.012,0.864c0,0.099,0,0.19,0,0.289c0.361,0.688,0.645,1.771,0.289,2.744c0,0.146,0,0.289,0,0.435
			c-0.486,1.111-1.485,1.961-2.602,2.453c0,0.051,0,0.098,0,0.146c1.983,0.191,4.017,2.764,3.182,5.34c0,0.193,0,0.386,0,0.578
			c-0.049,0-0.098,0-0.146,0c-0.048,0.193-0.096,0.386-0.145,0.578c-0.049,0-0.096,0-0.145,0c0,0.096,0,0.191,0,0.287
			c-0.098,0.049-0.193,0.098-0.289,0.146c0,0.097,0,0.192,0,0.289c-0.098,0.049-0.192,0.097-0.289,0.146
			c-0.146,0.191-0.289,0.385-0.435,0.578c-0.097,0-0.19,0-0.288,0c-0.049,0.096-0.097,0.191-0.145,0.287
			c-0.193,0.049-0.387,0.098-0.578,0.145c0,0.051,0,0.099,0,0.146c-0.096,0-0.192,0-0.289,0c0,0.049,0,0.098,0,0.146
			c-0.145,0-0.288,0-0.436,0c0,0.047,0,0.097,0,0.145c-0.888,0.348-2.07,0.444-3.31,0.444c-1.394,0-2.856-0.123-4.054-0.155
			c0-5.682,0-11.361,0-17.041c0.578-0.048,1.154-0.096,1.731-0.145c0-0.049,0-0.098,0-0.146
			C111.423,78.525,112.001,78.525,112.578,78.525 M112.849,85.924c1.594,0,2.695-0.191,3.483-1.33
			c0.097-0.049,0.192-0.098,0.289-0.145c0.169-0.275,0.473-1.602,0.289-2.166c-0.048,0-0.099,0-0.146,0
			c-0.049-0.242-0.097-0.482-0.146-0.724c-0.466-0.274-0.784-0.786-1.3-1.013c-0.491-0.215-1.096-0.279-1.727-0.279
			c-0.787,0-1.613,0.102-2.316,0.136c0,1.828,0,3.658,0,5.489C111.849,85.909,112.37,85.924,112.849,85.924 M113.153,94.202
			c1.14,0,2.217-0.135,3.031-0.656c0.051-0.096,0.099-0.19,0.146-0.287c0.098,0,0.193,0,0.289,0
			c0.049-0.145,0.097-0.289,0.145-0.434c0.098-0.049,0.192-0.098,0.289-0.146c0.17-0.259,0.004-0.323,0.289-0.577
			c0.042-0.711,0.211-1.087-0.001-1.732c0-0.193,0-0.386,0-0.578c-0.755-1.865-2.913-2.17-5.534-2.17
			c-0.176,0-0.353,0.002-0.529,0.004c0,2.166,0,4.332,0,6.498C111.899,94.163,112.536,94.202,113.153,94.202"/>
	</g>
	<g>
		<path fill="#FFFFFF" stroke="#CED5DC" stroke-width="0.25" stroke-linejoin="round" stroke-miterlimit="10" d="M168.176,96.127
			c-0.044,0-0.084-0.022-0.106-0.062c-0.024-0.041-0.062-0.09-0.103-0.147c-0.229-0.314-0.653-0.903-0.337-1.56
			c0.354-0.317,0.424-0.419,0.438-0.444c0.022-0.037,0.063-0.062,0.108-0.062c0.456,0,0.714,0.052,1.009,0.112l0.17,0.033
			c0.045,0.01,0.082,0.041,0.097,0.084l0.146,0.435c0.109,0.093,0.172,0.337,0.146,0.64c-0.025,0.291-0.142,0.664-0.337,0.803
			l-0.236,0.016v0.027c0,0.068-0.057,0.125-0.125,0.125H168.176z"/>
	</g>
	<g>
		<path fill="#FFFFFF" stroke="#CED5DC" stroke-width="0.25" stroke-linejoin="round" stroke-miterlimit="10" d="M179.007,96.127
			c-0.044,0-0.084-0.022-0.105-0.062c-0.025-0.04-0.062-0.09-0.104-0.147c-0.229-0.314-0.652-0.903-0.336-1.56
			c0.336-0.306,0.415-0.405,0.438-0.444c0.021-0.037,0.062-0.062,0.107-0.062c0.456,0,0.713,0.052,1.01,0.112l0.17,0.033
			c0.045,0.01,0.08,0.041,0.096,0.084l0.144,0.437c0.109,0.09,0.173,0.334,0.146,0.638c-0.023,0.289-0.141,0.664-0.336,0.803
			l-0.236,0.016v0.027c0,0.068-0.057,0.125-0.125,0.125H179.007z"/>
	</g>
	<g>
		<path fill="#FFFFFF" stroke="#CED5DC" stroke-width="0.25" stroke-linejoin="round" stroke-miterlimit="10" d="M191.571,96.127
			c-0.045,0-0.084-0.022-0.106-0.062c-0.024-0.041-0.062-0.09-0.103-0.147c-0.229-0.315-0.654-0.903-0.338-1.56
			c0.353-0.317,0.425-0.42,0.438-0.444c0.022-0.037,0.062-0.062,0.106-0.062c0.457,0,0.726,0.056,1.009,0.112l0.17,0.035
			c0.044,0.008,0.08,0.039,0.095,0.082l0.146,0.437c0.109,0.091,0.173,0.335,0.146,0.638c-0.024,0.291-0.143,0.666-0.339,0.805
			l-0.234,0.015v0.026c0,0.07-0.057,0.125-0.125,0.125H191.571L191.571,96.127z"/>
	</g>
	<path fill="#FFFFFF" stroke="#CED5DC" stroke-width="0.25" stroke-linejoin="round" stroke-miterlimit="10" d="M88.564,35.241
		c0-0.576,0-1.154,0-1.732c-0.049-1.01-0.098-2.021-0.146-3.032c-0.288-0.087-0.124,0.021-0.289-0.146
		c-0.39-0.439,0.128-1.414-0.145-2.021c-0.097-0.05-0.192-0.097-0.288-0.146c0-0.097,0-0.191,0-0.289c-0.048,0-0.098,0-0.146,0
		c0-0.097,0-0.191,0-0.289c-0.049,0-0.097,0-0.145,0c0-0.625,0-1.25,0-1.877c-0.193-0.096-0.385-0.191-0.577-0.289
		c0-0.625,0-1.25,0-1.877c-0.049,0-0.097,0-0.146,0c0.05-0.096,0.098-0.191,0.146-0.289c-0.049,0-0.097,0-0.146,0
		c-0.048-0.385-0.097-0.77-0.144-1.154c-0.048,0-0.097,0-0.146,0c-0.097-0.289-0.191-0.578-0.288-0.866
		c-0.192-0.048-0.387-0.096-0.578-0.146c0,0.049,0,0.097,0,0.146c-0.048,0-0.097,0-0.145,0c0-0.048,0-0.096,0-0.146
		c-0.27-0.045-0.489,0.185-0.578,0.146c0-0.048,0-0.096,0-0.146c-0.993-0.006-0.774,0.162-1.011,0.867c-0.097,0-0.191,0-0.289,0
		c-0.145,1.203-0.289,2.406-0.434,3.61c-0.192,0.048-0.385,0.097-0.577,0.144c0,0.723,0,1.444,0,2.166
		c-0.146,0.098-0.289,0.192-0.435,0.289c0,0.192,0,0.385,0,0.578c-0.048,0-0.096,0-0.145,0c0.049,0.289,0.097,0.577,0.145,0.866
		c-0.048,0-0.096,0-0.145,0c0,0.288,0,0.577,0,0.866c-0.047,0-0.096,0-0.144,0c0,0.097,0,0.191,0,0.287c-0.05,0-0.098,0-0.146,0
		c-0.048,0.482-0.097,0.965-0.145,1.445c-0.049,0-0.098,0-0.146,0c0,0.625,0,1.252,0,1.877c0,1.59,0,3.178,0,4.767
		c0,0.192,0,0.385,0,0.577c0.048,0,0.097,0,0.146,0c0,0.049,0,0.097,0,0.146c-0.348,5.758-0.104,12.454-0.146,18.196
		c-0.547-0.098-3.071-0.368-3.755-0.146c0,0.049,0,0.099,0,0.146c-0.145,0-0.289,0-0.434,0c-0.049,0.098-0.097,0.191-0.145,0.289
		c-0.097,0-0.192,0-0.289,0c0,0.049,0,0.097,0,0.146c-0.145,0-0.289,0-0.434,0c0,0.047,0,0.096,0,0.145c-1.588,0-3.178,0-4.766,0
		c-0.049-1.301-0.098-2.602-0.146-3.898c-0.048,0-0.097,0-0.144,0c-0.144-0.511,0.141-1.119-0.146-1.445c0-0.047,0-0.096,0-0.145
		c-0.049,0-0.097,0-0.145,0c0,0.049,0,0.098,0,0.145c-0.146,0.049-0.29,0.098-0.435,0.146c0,0.192,0,0.386,0,0.577
		c-1.43-0.001-3.131-0.07-4.332,0.145c0.012-0.832,0.11-2.479,0-2.888c-0.049,0-0.097,0-0.145,0c0-0.239,0-0.481,0-0.722
		c-0.049,0-0.097,0-0.146,0c0-0.098,0-0.193,0-0.289c-0.048,0-0.097,0-0.145,0c-0.15,0.311-0.015,0.264-0.289,0.434
		c-0.176-0.396-0.478-1.135-0.288-1.878c0.048,0,0.096,0,0.145,0c-0.049-0.146-0.097-0.288-0.145-0.435c0.048,0,0.096,0,0.145,0
		c-0.049-0.674-0.097-1.348-0.145-2.02c-0.097,0-0.193,0-0.289,0c0,0.145,0,0.288,0,0.434c-0.178-0.199-0.255-2.129-0.146-2.6
		c0.011-0.043,0.197-0.041,0.146-0.289c-0.049,0-0.097,0-0.146,0c-0.048-0.242-0.097-0.481-0.145-0.723
		c-0.241-0.193-0.48-0.387-0.722-0.578c0.048-0.289,0.096-0.576,0.144-0.865c-0.048,0-0.096,0-0.144,0
		c-0.098-0.818-0.193-1.638-0.289-2.455c-0.098,0-0.192,0-0.289,0c-0.048,0.576-0.097,1.154-0.146,1.732c-0.048,0-0.097,0-0.144,0
		c0,0.191,0,0.385,0,0.577c-0.05,0-0.097,0-0.146,0c0,0.385,0,0.771,0,1.155c-0.146,0.097-0.288,0.191-0.435,0.289
		c-0.047,0.191-0.096,0.385-0.144,0.576c-0.049,0-0.098,0-0.146,0c0,1.061,0,2.118,0,3.178c-0.048,0-0.097,0-0.145,0
		c0-0.145,0-0.289,0-0.434c-0.049,0-0.098,0-0.145,0c-0.246,0.637-0.349,1.485-0.29,2.455c0.049,0.145,0.097,0.288,0.146,0.434
		c-0.05,0-0.098,0-0.146,0c-0.062,0.644,0.406,0.789-0.144,1.301c-0.124,0.162,0.019,0.021-0.146,0.145
		c-0.047-0.145-0.096-0.289-0.144-0.434c-0.098,0-0.192,0-0.289,0c0,1.251,0,2.503,0,3.754c-0.747,0.009-3.632,0.095-3.754,0
		c-0.943-0.049-0.545-0.294-1.013-0.723c-0.162-0.162,0.002-0.062-0.289-0.145c-0.133,0.35-0.154,0.896-0.144,1.443
		c-0.193,0.049-0.386,0.098-0.578,0.146c0.025,0.758,0.205,1.207,0.434,1.732c0,0.048,0,0.096,0,0.145c-0.049,0-0.096,0-0.146,0
		c0.143,0.678,0.133,1.332,0,2.021c-1.636,0-3.271,0-4.909,0c0-0.049,0-0.098,0-0.145c-0.097,0-0.191,0-0.289,0
		c0-0.05,0-0.098,0-0.146c-0.097,0-0.191,0-0.289,0c-0.372-0.196-0.646-0.471-1.154-0.577c-0.333-1.905-0.289-4.348-0.289-6.645
		c0-0.963,0-1.926,0-2.889c-0.048,0-0.097,0-0.146,0l0.146-0.145c-0.048-0.145-0.097-0.288-0.146-0.434c0.049,0,0.098,0,0.146,0
		c0-1.589,0-3.178,0-4.766c-0.152-0.585-0.154-3.111-0.146-4.766c-0.745-0.045-0.7-0.309-1.154-0.578
		c-0.094-0.449-0.246-0.646-0.288-1.155c-1.463-0.267-4.168-0.167-5.199,0c-0.007,1.144-0.553,1.64-1.3,2.022
		c0,4.572,0,9.146,0,13.719c0,1.562-0.184,5.195,0.026,6.177c-0.318,0.121-0.669,0.044-1.182,0.033c0-4.284,0-8.568,0-12.853
		c0-1.722-0.175-5.021,0-5.777c0-2.262,0-4.524,0-6.787c-0.049-0.289-0.097-0.577-0.146-0.866c0.193-1.106,0.387-2.215,0.578-3.321
		c-0.528,0-1.059,0-1.589,0c-0.004-0.515,0.023-0.979,0.146-1.3c-0.048,0-0.097,0-0.146,0c0-0.049,0-0.097,0-0.146
		c-0.191,0-0.385,0-0.577,0c-0.145-0.191-0.289-0.385-0.434-0.578c-0.048,0-0.096,0-0.146,0c0-0.096,0-0.191,0-0.287
		c-0.336-0.289-0.674-0.578-1.011-0.867c-0.303-0.418-0.225-0.574-0.722-0.867c0-0.048,0-0.096,0-0.145c-0.049,0-0.097,0-0.146,0
		c-0.77,0.914-1.54,1.828-2.311,2.744c-0.145,0-0.289,0-0.434,0c0,0.047,0,0.096,0,0.145c-0.049,0-0.098,0-0.146,0
		c0,0.434,0,0.866,0,1.301c-0.529,0-1.059,0-1.588,0c0.181,0.496,0.148,1.842,0.433,2.166c0,3.803,0,7.604,0,11.407
		c0,1.3,0,2.601,0,3.899c-0.385,0.145-0.771,0.289-1.154,0.434c-0.242,1.159-0.601,2.414-0.577,3.898c-0.146,0-0.289,0-0.435,0
		c0-0.049,0-0.096,0-0.145c-0.048,0-0.096,0-0.145,0c0.049-0.097,0.097-0.193,0.145-0.289c-0.048,0-0.096,0-0.145,0
		c0-0.434,0-0.865,0-1.3c-0.048,0-0.096,0-0.146,0c0-0.146,0-0.289,0-0.435c-0.096-0.047-0.19-0.096-0.287-0.145
		c0-0.191,0-0.385,0-0.576c-0.05,0-0.098,0-0.146,0c0.048-1.252,0.096-2.505,0.146-3.756c-0.05,0-0.098,0-0.146,0
		c0-0.337,0-0.674,0-1.011c-0.049,0-0.097,0-0.145,0c0-0.146,0-0.289,0-0.435c-0.05,0-0.098,0-0.146,0c0-0.145,0-0.287,0-0.433
		c-0.049,0-0.096,0-0.145,0c0-0.386,0-0.771,0-1.155c-0.097-0.049-0.192-0.097-0.289-0.145c0-0.191,0-0.387,0-0.578
		c-0.048,0-0.097,0-0.146,0c-0.2-0.439-0.243-0.854-0.577-1.154c-0.122-0.164,0.02-0.023-0.145-0.146
		c-0.325,0.707-0.761,1.545-1.011,2.312c0,0.385,0,0.77,0,1.154c-0.049,0-0.097,0-0.146,0c0,0.098,0,0.191,0,0.289
		c-0.096,0.049-0.191,0.098-0.289,0.146c0,1.877,0,3.756,0,5.633c-0.145,0.097-0.288,0.191-0.433,0.289
		c-0.049,0.625-0.097,1.252-0.146,1.877c-0.577,0.049-1.154,0.097-1.732,0.145c0,3.227,0,6.45,0,9.676
		c-0.402,0.093-0.69,0.329-1.011,0.435c-0.915,0-1.829,0-2.744,0c0-0.771,0-1.539,0-2.312c0.308-1.229,0.145-4.396,0.145-6.354
		c0-0.947,0.056-2.172-0.145-2.889c-0.34-1.226,0.559-2.563-0.145-3.322c-0.049-0.145-0.097-0.287-0.145-0.432
		c-0.819,0-1.637,0-2.455,0c0-0.05,0-0.098,0-0.146c-0.146,0-0.289,0-0.434,0c0-0.049,0-0.096,0-0.145
		c-0.472-0.15-1.861,0.026-2.167,0.145c0,0.049,0,0.097,0,0.146c-0.096,0-0.191,0-0.288,0c0,0.047,0,0.096,0,0.145
		c-0.146-0.049-0.289-0.098-0.434-0.145c0-0.05,0-0.098,0-0.146c-0.338,0.049-0.675,0.097-1.012,0.146c0,0.047,0,0.096,0,0.145
		c-0.145,0.048-0.288,0.096-0.433,0.144c0,1.687,0,3.37,0,5.056c-0.289,0-0.578,0-0.866,0c0,3.609,0,7.221,0,10.831
		c-1.43-0.007-4.425-0.248-5.488,0.146c0,1.78,0,3.562,0,5.344c0,0.894-0.099,2.082,0.146,2.743c27.819,0,55.648,0,83.471,0
		c0-11.455,0-22.914,0-34.37C88.661,35.241,88.612,35.241,88.564,35.241z M72.299,61.547h-0.742v-0.022c-0.011,0-0.021,0-0.031,0
		c-0.001-0.358,0.01-0.716,0.031-1.05v-0.907h0.103c0-0.002,0-0.002,0-0.003h0.208c0.001,0.001,0.005,0.001,0.007,0.003H72.3
		L72.299,61.547L72.299,61.547z M73.7,61.547h-0.782v-1.982h0.443c0.003,0.001,0.007,0.001,0.011,0.003H73.7v0.216
		c0.003,0.035,0.006,0.071,0.009,0.107v1.634c-0.003,0-0.006,0-0.009,0V61.547L73.7,61.547z"/>
	<path fill="#FFFFFF" stroke="#CED5DC" stroke-width="0.25" stroke-linejoin="round" stroke-miterlimit="10" d="M23.445,81.366
		c-0.02-0.046-0.064-0.074-0.114-0.074h-0.02v-0.164c0-0.069-0.056-0.125-0.125-0.125h-0.027l-0.012-0.23
		c-1.011-1.609-2.873-2.359-5.86-2.359c-1.302,0-2.673,0.133-4.08,0.28c-0.064,0.007-0.112,0.06-0.112,0.124v17.041
		c0,0.068,0.056,0.125,0.125,0.125h2.164c0.069,0,0.125-0.057,0.125-0.125v-6.783c0.585,0.102,1.167,0.153,1.731,0.153
		c2.092,0,3.926-0.692,5.146-1.931l0.434-0.291c0.034-0.023,0.055-0.062,0.055-0.104l0.014-0.218l0.208-0.104
		c0.041-0.021,0.067-0.064,0.067-0.111v-0.163h0.021c0.069,0,0.125-0.056,0.125-0.125v-0.163h0.02c0.069,0,0.125-0.057,0.125-0.125
		v-0.309h0.02c0.069,0,0.125-0.057,0.125-0.125v-0.453h0.021c0.056,0,0.104-0.036,0.12-0.09
		C23.977,84.135,23.637,81.803,23.445,81.366z M21.379,84.302c-0.127,0.649-0.376,1.321-0.839,1.808
		c-0.374,0.394-0.884,0.656-1.387,0.842c-0.714,0.264-1.46,0.309-2.214,0.289c-0.235-0.006-0.472-0.011-0.707-0.033
		c-0.085-0.008-0.598-0.077-0.596-0.16v-6.644c-0.002,0.104,1.091-0.081,1.192-0.104c0.562-0.126,1.206,0.015,1.767,0.092
		c0.256,0.035,0.498,0.103,0.745,0.175c0.221,0.064,0.491,0.1,0.651,0.281c0.156,0.177,0.175,0.312,0.445,0.283
		c0.282,0.417,0.605,0.829,0.812,1.291C21.512,83.011,21.501,83.679,21.379,84.302z"/>
</g>
</svg>
