<?xml version="1.0" encoding="utf-8"?>
<!-- Generator: Adobe Illustrator 15.0.0, SVG Export Plug-In . SVG Version: 6.00 Build 0)  -->
<!DOCTYPE svg PUBLIC "-//W3C//DTD SVG 1.1//EN" "http://www.w3.org/Graphics/SVG/1.1/DTD/svg11.dtd">
<svg version="1.1" id="Layer_1" xmlns="http://www.w3.org/2000/svg" xmlns:xlink="http://www.w3.org/1999/xlink" x="0px" y="0px"
	 width="200.416px" height="109.54px" viewBox="396.414 131.623 200.416 109.54"
	 enable-background="new 396.414 131.623 200.416 109.54" xml:space="preserve">
<g>
	<path fill="#FFFFFF" d="M494.702,145.552c2.695,0,5.393,0,8.088,0c0,2.744,0,5.488,0,8.231c0.248,0.094,0.453,0.138,0.866,0.145
		c-0.145,11.744-0.289,23.492-0.433,35.237c0.433,0,0.866,0,1.299,0c0-0.049,0-0.097,0-0.146c0.048,0,0.097,0,0.145,0
		c0-2.068,0-4.14,0-6.209c1.3,0,2.6,0,3.899,0c0-0.578,0-1.155,0-1.733c0.096,0,0.192,0,0.289,0
		c0.146-0.282,0.453-0.588,0.577-0.866c0.049-0.289,0.097-0.578,0.145-0.867c0.049,0,0.096,0,0.145,0c0-0.288,0-0.577,0-0.866
		c0.192-0.096,0.385-0.192,0.578-0.288c0.261-0.485-0.242-1.444,0.144-1.878c0.165-0.164,0.001-0.058,0.289-0.145
		c0.337-0.914,0.674-1.829,1.011-2.743c0,0.048,0,0.096,0,0.144c0.048,0,0.097,0,0.145,0c0.049,0.338,0.097,0.674,0.145,1.012
		c0.049,0,0.096,0,0.145,0c0,0.192,0,0.385,0,0.577c0.048,0,0.096,0,0.145,0c0.048,0.192,0.096,0.385,0.145,0.578
		c0.097,0.048,0.191,0.096,0.288,0.144c0.049,0.193,0.097,0.386,0.145,0.578c0.048,0,0.097,0,0.145,0c0,0.577,0,1.155,0,1.733
		c0.24,0.048,0.481,0.096,0.723,0.145c0,0.385,0,0.77,0,1.154c0.097,0.049,0.192,0.097,0.288,0.145c0,0.145,0,0.289,0,0.434
		c0.049,0,0.097,0,0.145,0c0.093,0.248,0.051,0.488,0.145,0.722c0.221,0.084,0.237,0.11,0.578,0.145c0,0.578,0,1.155,0,1.733
		c1.347,0,2.695,0,4.043,0c0,2.117,0,4.236,0,6.354c0.337,0,0.675,0,1.011,0c0.032-0.521,0.19-2.484,0.434-2.743
		c0.244-0.947,1.023-0.997,1.589-1.589c0.096-0.048,0.192-0.097,0.288-0.145c0-0.481,0-0.963,0-1.444c0,0,0.098-0.025,0.145-0.288
		c0.145,0,0.29,0,0.434,0c0.072,0.146,0.274,0.262,0.289,0.288c0,0.145,0,0.289,0,0.434c0.047,0,0.097,0,0.144,0
		c0,0.385,0,0.771,0,1.155c0.041,0.078,0.759,0.515,0.867,0.577c0.097,0,0.191,0,0.288,0c0.241,0.338,0.482,0.675,0.723,1.012
		c0,0.144,0,0.288,0,0.434c0.048,0,0.097,0,0.145,0c0.221,0.661-0.055,2.44,0.433,2.743c0.097,0,0.193,0,0.289,0
		c0,0.049,0,0.096,0,0.145c0.289,0.048,0.578,0.097,0.866,0.145c0-1.396,0-2.792,0-4.188c0.049-0.722,0.097-1.443,0.145-2.166
		c0.097-0.048,0.193-0.096,0.289-0.145c0-4.38,0-8.762,0-13.142c0-2.069,0-4.14,0-6.209c0-1.251-0.053-2.615,0.289-3.467
		c0.26-0.137,0.228-0.2,0.578-0.289c0.095-0.419,0.257-0.36,0.289-0.433c0-0.386,0-0.771,0-1.155c0.048,0,0.095,0,0.144,0
		c0.048-0.289,0.097-0.578,0.145-0.867c0.048,0,0.096,0,0.145,0c0.048-0.192,0.097-0.385,0.145-0.577c0.048,0,0.096,0,0.144,0
		c0.049-0.241,0.097-0.481,0.146-0.722c0.048,0,0.096,0,0.144,0c0-0.097,0-0.193,0-0.289c0.049,0,0.097,0,0.146,0
		c0.144-0.625,0.288-1.251,0.433-1.877c0.048,0,0.097,0,0.145,0c0-0.096,0-0.192,0-0.289c0.192-0.145,0.385-0.289,0.577-0.434
		c0.049-0.192,0.097-0.385,0.145-0.578c0.048,0,0.097,0,0.145,0c0-0.192,0-0.385,0-0.578c0.462-1.417,0.124-3.155,0.145-4.766
		c0.145,0,0.288,0,0.433,0c0.145,1.877,0.289,3.755,0.435,5.632c0.433,0.285,0.135,0.408,0.721,0.578
		c0.049,0.192,0.097,0.385,0.145,0.578c0.049,0,0.097,0,0.145,0c0,0.336,0,0.673,0,1.011c0.049,0,0.096,0,0.146,0
		c0,0.096,0,0.192,0,0.289c0.144,0.096,0.288,0.192,0.433,0.289c0,0.385,0,0.77,0,1.155c0.048,0,0.097,0,0.144,0
		c0,0.097,0,0.192,0,0.289c0.193,0.145,0.386,0.288,0.579,0.433c0,0.097,0,0.193,0,0.289c0.047,0,0.096,0,0.144,0
		c0,0.529,0,1.06,0,1.589c0.048,0,0.097,0,0.145,0c0,0.096,0,0.192,0,0.289c0.145,0.048,0.288,0.096,0.434,0.144
		c0.096,0.145,0.192,0.289,0.289,0.434c0.048,0,0.096,0,0.145,0c0,0.145,0,0.289,0,0.434c0.047,0,0.096,0,0.144,0
		c0,8.52,0,17.041,0,25.561c0.337,0,0.674,0,1.012,0c0-2.791,0-5.584,0-8.375c0.047,0,0.096,0,0.144,0c0-0.434,0-0.867,0-1.3
		c0.097,0,0.192,0,0.289,0c0.145,0.818,0.288,1.637,0.434,2.454c0.48,0,0.962,0,1.444,0c0-0.288,0-0.577,0-0.866
		c0.096-0.048,0.191-0.096,0.288-0.144c0-0.145,0-0.289,0-0.434c0.049,0,0.097,0,0.145,0c0-0.192,0-0.386,0-0.578
		c0.048,0,0.097,0,0.145,0c0-1.685,0-3.37,0-5.055c0.963,0,1.925,0,2.888,0c0-1.732,0-3.466,0-5.198c0.049,0,0.097,0,0.146,0
		c0-0.049,0-0.097,0-0.145c0.517,0.002,0.781-0.073,1.155-0.145c0-0.626,0-1.251,0-1.877c0.047,0,0.096,0,0.144,0
		c0-1.396,0-2.792,0-4.188c0.048,0,0.097,0,0.145,0c0-0.289,0-0.578,0-0.866c0.048,0,0.097,0,0.145,0c0-0.193,0-0.386,0-0.578
		c0.048,0,0.097,0,0.144,0c0.05-0.337,0.097-0.674,0.146-1.011c0.143-0.311,0.493-0.491,0.722-0.722
		c0.588-0.594,1.229-1.367,1.444-2.311c0.165,0.165,0.057,0.001,0.145,0.289c0.341,0.299,0.583,1.049,0.866,1.444
		c0.434,0.385,0.867,0.771,1.3,1.155c0,0.097,0,0.192,0,0.289c0.048,0,0.097,0,0.144,0c0,0.24,0,0.481,0,0.722
		c0.049,0,0.097,0,0.146,0c0,0.192,0,0.386,0,0.578c0.048,0,0.096,0,0.144,0c0,0.192,0,0.385,0,0.577c0.049,0,0.097,0,0.146,0
		c0,0.193,0,0.386,0,0.578c0.048,0,0.096,0,0.145,0c0,0.337,0,0.674,0,1.011c0.047,0,0.096,0,0.144,0c0,0.337,0,0.674,0,1.012
		c-0.048,0-0.097,0-0.144,0c0,0.048,0,0.096,0,0.144c0,1.252,0,2.504,0,3.755c0.382,0.145,1.002,0.15,1.588,0.145
		c0,5.198,0,10.398,0,15.597c0.049,2.454,0.097,4.91,0.144,7.364c0.107,0.337,0.346,0.711,0.435,1.156
		c0.396,0.093,0.328,0.188,0.722,0.288c0-1.251,0-2.503,0-3.754c-0.048,0-0.097,0-0.145,0c-0.097-0.289-0.192-0.578-0.289-0.866
		c0.192-0.097,0.386-0.193,0.578-0.29c0-1.01,0-2.021,0-3.032c0.145-0.096,0.289-0.192,0.434-0.289c0-0.096,0-0.192,0-0.288
		c0.047,0,0.096,0,0.144,0c0-0.818,0-1.637,0-2.455c-0.036-0.096-0.404-0.045-0.288-0.434c0.145-0.097,0.288-0.192,0.433-0.289
		c0-0.096,0-0.192,0-0.289c0.049,0,0.097,0,0.145,0c0.048-0.192,0.097-0.385,0.145-0.577c0.048,0,0.096,0,0.145,0
		c0-0.192,0-0.385,0-0.577c0.048,0,0.096,0,0.145,0c0-0.481,0-0.963,0-1.444c0.048,0,0.096,0,0.144,0c0-0.674,0-1.349,0-2.022
		c0.049,0,0.097,0,0.146,0c0-0.481,0-0.963,0-1.443c0,0,0.097-0.026,0.144-0.289c0.145-0.048,0.289-0.097,0.434-0.145
		c0.049,0.192,0.096,0.385,0.144,0.578c0.049,0,0.097,0,0.146,0c0,0.529,0,1.059,0,1.588c0.048,0,0.096,0,0.144,0
		c0,0.529,0,1.06,0,1.589c0.049,0,0.097,0,0.146,0c0,0.481,0,0.963,0,1.444c0.145,0.481,0.288,0.963,0.433,1.443
		c0.097,0.049,0.193,0.097,0.288,0.145c0,0.097,0,0.192,0,0.289c0.049,0,0.097,0,0.146,0c0.092,0.299-0.146,0.434-0.146,0.434
		c0,0.818,0,1.637,0,2.455c0.146,0.096,0.289,0.192,0.435,0.288c0.048,0.481,0.096,0.963,0.144,1.444c-0.048,0-0.096,0-0.144,0
		c0.048,0.626,0.096,1.252,0.144,1.877c0.386,0,0.771,0,1.156,0c0-0.48,0-0.962,0-1.443c0.047,0,0.096,0,0.144,0
		c0-2.455,0-4.911,0-7.365c0-1.203,0-2.407,0-3.61c0.097-0.048,0.192-0.096,0.289-0.145c0-0.097,0-0.192,0-0.289
		c0.048,0,0.097,0,0.145,0c0.048-0.625,0.096-1.251,0.145-1.877c0.048,0,0.096,0,0.145,0c0-0.145,0-0.289,0-0.434
		c0.048,0,0.096,0,0.145,0c0-0.096,0-0.192,0-0.288c0.048,0,0.096,0,0.145,0c0-0.145,0-0.289,0-0.434
		c0.096-0.048,0.191-0.097,0.288-0.145c0-0.096,0-0.192,0-0.289c0.049,0,0.097,0,0.145,0c0-0.096,0-0.192,0-0.289
		c0.048,0,0.097,0,0.145,0c0-0.048,0-0.096,0-0.144c-0.048,0-0.097,0-0.145,0c-0.062-0.599,0.377-0.931,0.577-1.3
		c0.049,0,0.097,0,0.145,0c0,0.048,0,0.096,0,0.145c0.764,0.513,0.783,2.087,1.155,3.032c0.049,0,0.097,0,0.145,0
		c0,0.145,0,0.289,0,0.434c0.048,0,0.097,0,0.145,0c0,0.145,0,0.288,0,0.434c0.048,0,0.097,0,0.145,0c0,0.191,0,0.385,0,0.577
		c0.048,0,0.096,0,0.145,0c0.048,0.722,0.096,1.444,0.144,2.166c0.049,0,0.097,0,0.145,0c-0.048,1.541-0.096,3.081-0.145,4.621
		c0.049,2.84,0.097,5.681,0.145,8.521c0.222,0.083,0.237,0.11,0.578,0.145c0.299-0.527,0.73-0.598,1.588-0.578
		c0.145-0.433,0.289-0.866,0.434-1.3c0.386-0.048,0.771-0.096,1.155-0.145c0.049-0.48,0.096-0.962,0.145-1.443
		c0.443-0.188,0.659-0.268,0.722-0.866c0.097,0,0.193,0,0.289,0c0,0.096,0,0.192,0,0.288c0.308,0.176,0.315,0.326,0.722,0.434
		c0.049,0.529,0.097,1.059,0.145,1.588c0.662,0.004,1.159,0.192,1.301,0.723c0.048,0,0.096,0,0.144,0
		c0.049,0.241,0.097,0.481,0.146,0.722c0.513-0.012,0.977,0.003,1.299-0.144c0,0.048,0,0.096,0,0.144c0.048,0,0.097,0,0.145,0
		c0,0.097,0,0.192,0,0.289c0.048,0,0.096,0,0.145,0c0.048,0.097,0.097,0.193,0.145,0.289c0.914,0,1.829,0,2.744,0
		c0.414-0.714,0.941-0.827,1.154-1.878c0.447-0.08,0.965-0.145,1.589-0.145c0.368-1.146-0.065-1.635,1.589-1.588
		c0.165,0.164,0,0.058,0.288,0.145c-0.006,0.678,0.018,1.182,0.289,1.588c0.289,0.241,0.578,0.481,0.867,0.723
		c0,0.337,0,0.674,0,1.011c0.048,0,0.096,0,0.144,0c0,0.145,0,0.289,0,0.434c0.049,0,0.097,0,0.146,0c0,0.145,0,0.288,0,0.434
		c0.048,0,0.095,0,0.144,0c0,0.144,0,0.288,0,0.433c0.048,0,0.097,0,0.145,0c0,0.097,0,0.193,0,0.288c0.048,0,0.096,0,0.145,0
		c0,0.145,0,0.289,0,0.435c0.048,0,0.097,0,0.145,0c0,0.722,0,1.443,0,2.165c0.048,0,0.097,0,0.144,0c0,0.097,0,0.193,0,0.29
		c0.146,0.047,0.289,0.096,0.435,0.144c0,0.097,0,0.192,0,0.289c-0.146,0-0.289,0-0.435,0c0,0.048,0,0.097,0,0.145
		c-0.047,0-0.096,0-0.144,0c0,0.337,0,0.674,0,1.011c0.262,0.146,0.429,0.318,0.578,0.577c-0.344,0.029-0.358,0.061-0.578,0.146
		c0.083,0.289-0.018,0.124,0.144,0.288c0.247,0.229,0.973,0.158,1.444,0.145c0.033-0.451,0.152-0.684,0.29-1.012
		c0.144-0.047,0.288-0.096,0.433-0.144c0-0.048,0-0.097,0-0.145c0.192,0,0.385,0,0.577,0c0-0.048,0-0.097,0-0.145
		c-0.337-0.291-0.366-0.723-0.577-1.155c-0.048,0-0.097,0-0.145,0c-0.048-0.24-0.097-0.481-0.145-0.722c-0.048,0-0.097,0-0.144,0
		c0-0.097,0-0.192,0-0.289c-0.049,0-0.097,0-0.145,0c0-0.097,0-0.192,0-0.289c-0.049,0-0.097,0-0.146,0c0-0.192,0-0.385,0-0.577
		c0.097-0.048,0.193-0.097,0.29-0.145c0-0.145,0-0.289,0-0.434c0.047,0,0.096,0,0.144,0c0.245-0.77-0.529-1.689-0.288-2.021
		c0.262-0.243,1.092-0.158,1.588-0.145c0.204,0.385,0.294,0.609,0.288,1.3c-0.159,0.176-0.265,1.138-0.288,1.444
		c0.097,0,0.192,0,0.288,0c0.193-0.351,0.56-0.481,0.723-0.722c0.698-1.03,0.517-2.01,2.311-2.022c0,0.049,0,0.097,0,0.145
		c0.241,0.048,0.481,0.097,0.723,0.145c0.048,0.145,0.096,0.289,0.145,0.433c0.593,0.672-0.402,1.944-0.145,2.167
		c0,0.048,0,0.096,0,0.144c0.145,0,0.289,0,0.434,0c0,0.386,0,0.771,0,1.155c-0.193-0.048-0.386-0.096-0.578-0.144
		c0,0.337,0,0.674,0,1.011c0.192-0.048,0.385-0.097,0.578-0.145c0.069,0.852,0.479,1.317,0.577,2.166
		c0.545,0.098,1.282,0.146,2.021,0.145c0,2.695,0,5.392,0,8.087c-32.489,0-64.988,0-97.479,0c-0.257-0.69-0.151-1.962-0.145-2.889
		c-0.386-0.442,0-2.279,0-3.032c0.048-2.936,0.097-5.873,0.145-8.809c0-11.648,0-23.3,0-34.948c0.27-0.102,0.564-0.144,1.011-0.145
		C494.702,151.04,494.702,148.296,494.702,145.552z"/>
	<path fill="#FFFFFF" d="M586.26,190.753c0.097,0,0.193,0,0.29,0c0.289-0.241,0.577-0.481,0.865-0.723
		c0.201-0.268-0.062-0.207,0.289-0.433c0-0.049,0-0.096,0-0.145c-0.096,0-0.192,0-0.289,0
		C586.941,189.983,586.459,189.833,586.26,190.753z"/>
	<path fill="#FFFFFF" d="M584.672,194.219c0.433-0.097,0.866-0.192,1.3-0.288c0-0.723,0-1.445,0-2.167c-0.145,0-0.289,0-0.434,0
		c-0.048,0.096-0.096,0.192-0.145,0.289c-0.048,0-0.096,0-0.145,0c-0.048,0.288-0.096,0.578-0.145,0.866
		C584.93,193.357,584.705,193.563,584.672,194.219z"/>
	<path fill="#FFFFFF" d="M587.127,192.631c0.395-0.095,0.329-0.189,0.722-0.289c0-0.145,0-0.289,0-0.434
		c-0.192-0.049-0.386-0.097-0.577-0.145c0,0.048,0,0.096,0,0.145c-0.049,0-0.097,0-0.145,0
		C587.127,192.15,587.127,192.39,587.127,192.631z"/>
	<path fill="#FFFFFF" d="M587.127,193.931c0.462-0.12,0.419-0.171,0.433-0.723c-0.164-0.165-0.058,0-0.145-0.289
		c-0.048,0-0.096,0-0.144,0c0,0.048,0,0.097,0,0.145c-0.049,0-0.097,0-0.145,0C587.127,193.353,587.127,193.641,587.127,193.931z"/>
	<path fill="#FFFFFF" d="M454.556,195.375c0.241,0,0.481,0,0.722,0c0-0.048,0-0.096,0-0.145c-0.048,0-0.096,0-0.144,0
		c-0.141-0.249-0.043-1.446-0.146-1.732c-0.096,0.048-0.191,0.096-0.288,0.144c0,0.049,0,0.097,0,0.145c-0.048,0-0.097,0-0.145,0
		C454.556,194.316,454.556,194.845,454.556,195.375z"/>
	<path fill="#FFFFFF" d="M457.443,193.641c-0.048,0.626-0.096,1.252-0.145,1.878c0.338,0,0.675,0,1.012,0
		c0.021-0.937-0.023-1.433-0.289-2.021C457.829,193.545,457.637,193.593,457.443,193.641z"/>
	<path fill="#FFFFFF" d="M456.145,193.641c-0.086,0.479-0.145,1.072-0.145,1.733c0.231,0.088,0.343,0.127,0.722,0.145
		c0-0.578,0-1.155,0-1.733c-0.163-0.121-0.021,0.019-0.144-0.145C456.434,193.641,456.289,193.641,456.145,193.641z"/>
	<path fill="#FFFFFF" d="M423.651,209.671c0.771,0,1.541,0,2.312,0c0,2.407,0,4.814,0,7.221c2.743,0,5.487,0,8.231,0
		c0-2.406,0-4.813,0-7.221c0.771,0,1.54,0,2.31,0c0,5.729,0,11.457,0,17.186c-0.77,0-1.539,0-2.31,0c0-2.647,0-5.296,0-7.943
		c-2.744,0-5.488,0-8.231,0c0,2.647,0,5.296,0,7.943c-0.771,0-1.541,0-2.312,0C423.651,221.128,423.651,215.399,423.651,209.671z"/>
	<path fill="#FFFFFF" d="M440.259,209.671c0.771,0,1.541,0,2.312,0c0,5.729,0,11.457,0,17.186c-0.771,0-1.541,0-2.312,0
		C440.259,221.128,440.259,215.399,440.259,209.671z"/>
	<path fill="#FFFFFF" d="M446.324,209.671c0.771,0,1.54,0,2.311,0c0,5.102,0,10.206,0,15.308c2.454,0,4.91,0,7.365,0
		c0,0.626,0,1.252,0,1.878c-3.226,0-6.45,0-9.676,0C446.324,221.128,446.324,215.399,446.324,209.671z"/>
	<path fill="#FFFFFF" d="M458.455,209.671c0.771,0,1.54,0,2.311,0c0,5.102,0,10.206,0,15.308c2.454,0,4.91,0,7.365,0
		c0,0.626,0,1.252,0,1.878c-3.225,0-6.451,0-9.676,0C458.455,221.128,458.455,215.399,458.455,209.671z"/>
	<path fill="#FFFFFF" d="M477.518,209.671c0.866,0,1.732,0,2.6,0c-0.107,0.443-0.387,0.673-0.578,1.011c0,0.097,0,0.193,0,0.289
		c-0.096,0.049-0.192,0.096-0.289,0.145c-0.048,0.192-0.096,0.386-0.145,0.577c-0.096,0.048-0.192,0.097-0.288,0.145
		c-0.097,0.289-0.192,0.578-0.289,0.867c-0.096,0.047-0.192,0.096-0.289,0.144c-0.096,0.289-0.192,0.578-0.289,0.867
		c-0.096,0.048-0.191,0.096-0.288,0.145c0,0.096,0,0.192,0,0.288c-0.048,0-0.097,0-0.145,0c0,0.097,0,0.193,0,0.289
		c-0.097,0.049-0.193,0.096-0.289,0.145c-0.096,0.289-0.192,0.577-0.289,0.866c-0.096,0.048-0.192,0.097-0.288,0.145
		c-0.048,0.192-0.097,0.385-0.145,0.578c-0.097,0.048-0.192,0.097-0.289,0.144c-0.096,0.289-0.192,0.578-0.289,0.866
		c-0.096,0.049-0.192,0.097-0.289,0.146c-0.047,0.192-0.096,0.385-0.144,0.577c-0.097,0.049-0.192,0.097-0.289,0.145
		c-0.097,0.289-0.192,0.578-0.289,0.866c-0.096,0.048-0.192,0.097-0.289,0.145c0,0.097,0,0.193,0,0.289c-0.048,0-0.096,0-0.145,0
		c0,2.503,0,5.007,0,7.51c-0.77,0-1.54,0-2.311,0c0-2.455,0-4.91,0-7.365c-0.048,0-0.096,0-0.145,0
		c-0.047-0.193-0.096-0.385-0.144-0.578c-0.097-0.048-0.192-0.096-0.289-0.145c0-0.096,0-0.191,0-0.288c-0.048,0-0.097,0-0.145,0
		c0-0.097,0-0.193,0-0.289l-0.289-0.289c0-0.097,0-0.192,0-0.289c-0.096-0.048-0.192-0.096-0.289-0.145
		c-0.047-0.192-0.096-0.385-0.144-0.577c-0.049,0-0.097,0-0.145,0c0-0.096,0-0.192,0-0.289l-0.288-0.289c0-0.096,0-0.192,0-0.288
		c-0.097-0.049-0.193-0.097-0.29-0.145c0-0.097,0-0.193,0-0.289c-0.048,0-0.096,0-0.145,0c0-0.097,0-0.192,0-0.289l-0.288-0.288
		c0-0.097,0-0.193,0-0.289c-0.097-0.049-0.193-0.097-0.289-0.145c0-0.096,0-0.192,0-0.289c-0.048,0-0.097,0-0.145,0
		c0-0.096,0-0.192,0-0.289l-0.289-0.288c0-0.097,0-0.193,0-0.289c-0.096-0.049-0.192-0.096-0.289-0.145c0-0.096,0-0.192,0-0.289
		c-0.047,0-0.096,0-0.144,0c0-0.097,0-0.192,0-0.288c-0.048,0-0.097,0-0.145,0c0-0.097,0-0.193,0-0.289l-0.289-0.29
		c0-0.095,0-0.191,0-0.288c-0.096-0.048-0.192-0.097-0.289-0.145c-0.096-0.288-0.192-0.577-0.289-0.866c-0.048,0-0.096,0-0.144,0
		c0-0.097,0-0.192,0-0.289c-0.097-0.048-0.193-0.097-0.289-0.144c0-0.097,0-0.193,0-0.289c-0.048,0-0.097,0-0.145,0
		c-0.049-0.145-0.096-0.289-0.145-0.434c0.866,0,1.733,0,2.6,0c0.152,0.36,0.402,0.701,0.577,1.011c0,0.097,0,0.193,0,0.289
		c0.097,0.049,0.193,0.096,0.289,0.145c0.096,0.289,0.192,0.577,0.289,0.866c0.048,0,0.097,0,0.145,0c0,0.097,0,0.193,0,0.288
		c0.048,0,0.096,0,0.145,0c0.048,0.193,0.097,0.386,0.144,0.578c0.049,0,0.097,0,0.145,0c0.049,0.193,0.097,0.386,0.145,0.578
		c0.049,0,0.097,0,0.145,0c0,0.096,0,0.192,0,0.289c0.049,0,0.096,0,0.145,0c0,0.096,0,0.192,0,0.288c0.048,0,0.097,0,0.145,0
		c0,0.097,0,0.193,0,0.289c0.048,0,0.097,0,0.145,0c0,0.097,0,0.193,0,0.289c0.048,0,0.097,0,0.145,0
		c0.097,0.289,0.192,0.577,0.288,0.866c0.049,0,0.097,0,0.146,0c0,0.097,0,0.193,0,0.29c0.354,0.661,0.815,1.32,1.01,2.165
		c0.165-0.164,0.058,0,0.146-0.289c0.447-0.408,0.562-1.165,0.866-1.732c0.048,0,0.096,0,0.144,0c0-0.097,0-0.193,0-0.289
		c0.049,0,0.097,0,0.145,0c0-0.097,0-0.192,0-0.289c0.049,0,0.097,0,0.145,0c0-0.096,0-0.191,0-0.288c0.049,0,0.097,0,0.146,0
		c0.047-0.193,0.096-0.386,0.144-0.578c0.048,0,0.097,0,0.145,0c0-0.096,0-0.192,0-0.289c0.048,0,0.097,0,0.145,0
		c0-0.096,0-0.192,0-0.288c0.048,0,0.097,0,0.145,0c0-0.097,0-0.193,0-0.289c0.048,0,0.097,0,0.144,0c0-0.097,0-0.193,0-0.289
		c0.049,0,0.097,0,0.146,0c0.096-0.288,0.192-0.577,0.289-0.866c0.095-0.049,0.191-0.097,0.288-0.146
		c0.048-0.191,0.096-0.385,0.145-0.577C476.844,211.066,477.337,210.456,477.518,209.671z"/>
	<path fill="#FFFFFF" d="M519.83,209.671c0.771,0,1.541,0,2.311,0c0,3.947,0,7.896,0,11.842c0.049,0,0.097,0,0.145,0
		c0.048,0.386,0.097,0.771,0.145,1.155c0.048,0,0.097,0,0.145,0c0,0.096,0,0.192,0,0.289c0.049,0,0.096,0,0.146,0
		c0,0.145,0,0.289,0,0.433c0.095,0.049,0.191,0.097,0.288,0.145c0,0.097,0,0.192,0,0.289c0.048,0,0.096,0,0.145,0
		c0.168,0.216,0.2,0.257,0.288,0.578c0.324,0.089,0.358,0.121,0.578,0.288c0,0.049,0,0.097,0,0.145c0.096,0,0.192,0,0.289,0
		c0,0.049,0,0.097,0,0.145c0.097,0,0.192,0,0.288,0c0,0.049,0,0.097,0,0.145c0.193,0,0.386,0,0.578,0c0,0.048,0,0.096,0,0.145
		c1.053,0.314,2.829-0.246,3.322-0.578c0.095-0.145,0.191-0.288,0.288-0.433c1.614-1.591,1.444-3.372,1.444-6.499
		c0-2.695,0-5.392,0-8.087c0.77,0,1.541,0,2.311,0c0,2.84,0,5.681,0,8.521c0,2.022,0.041,4.083-0.578,5.487
		c-0.048,0-0.096,0-0.145,0c-0.096,0.289-0.192,0.578-0.289,0.866c-0.144,0.097-0.288,0.193-0.433,0.289c0,0.097,0,0.193,0,0.289
		c-0.097,0.048-0.193,0.096-0.289,0.145c-0.192,0.24-0.385,0.481-0.577,0.722c-0.097,0-0.193,0-0.289,0
		c-0.048,0.097-0.097,0.193-0.145,0.289c-0.192,0.048-0.386,0.096-0.578,0.145c0,0.048,0,0.097,0,0.145c-0.097,0-0.191,0-0.288,0
		c0,0.048,0,0.096,0,0.145c-0.561,0.244-3.22,0.716-4.188,0.434c0-0.049,0-0.097,0-0.146c-0.24,0-0.48,0-0.722,0
		c0-0.048,0-0.096,0-0.144c-0.145,0-0.289,0-0.434,0c0-0.049,0-0.097,0-0.145c-0.145,0-0.289,0-0.433,0c0-0.049,0-0.097,0-0.145
		c-0.192-0.048-0.386-0.097-0.578-0.145c-0.048-0.097-0.097-0.192-0.145-0.289c-0.097,0-0.192,0-0.289,0
		c-0.24-0.289-0.481-0.577-0.722-0.866c-0.096-0.049-0.192-0.097-0.289-0.145c0-0.096,0-0.192,0-0.289
		c-0.096-0.048-0.192-0.096-0.288-0.145c-0.097-0.288-0.193-0.577-0.289-0.866c-0.049,0-0.097,0-0.145,0
		c-0.627-1.435-0.578-3.438-0.578-5.487C519.83,215.449,519.83,212.559,519.83,209.671z"/>
	<path fill="#FFFFFF" d="M545.536,209.671c0.866,0,1.733,0,2.599,0c-0.106,0.443-0.386,0.673-0.577,1.011c0,0.097,0,0.193,0,0.289
		c-0.097,0.049-0.192,0.096-0.288,0.145c-0.049,0.192-0.097,0.386-0.145,0.577c-0.097,0.048-0.193,0.097-0.289,0.145
		c-0.097,0.289-0.192,0.578-0.289,0.867c-0.097,0.047-0.192,0.096-0.289,0.144c-0.096,0.289-0.192,0.578-0.289,0.867
		c-0.096,0.048-0.192,0.096-0.289,0.145c0,0.096,0,0.192,0,0.288c-0.048,0-0.095,0-0.144,0c0,0.097,0,0.193,0,0.289
		c-0.097,0.049-0.193,0.096-0.289,0.145c-0.097,0.289-0.193,0.577-0.288,0.866c-0.097,0.048-0.193,0.097-0.289,0.145
		c-0.049,0.192-0.097,0.385-0.146,0.578c-0.096,0.048-0.191,0.097-0.288,0.144c-0.097,0.289-0.192,0.578-0.289,0.866
		c-0.097,0.049-0.192,0.097-0.289,0.146c-0.048,0.192-0.096,0.385-0.145,0.577c-0.096,0.049-0.192,0.097-0.288,0.145
		c-0.097,0.289-0.192,0.578-0.289,0.866c-0.097,0.048-0.192,0.097-0.289,0.145c0,0.097,0,0.193,0,0.289c-0.048,0-0.096,0-0.145,0
		c0,2.503,0,5.007,0,7.51c-0.77,0-1.541,0-2.31,0c0-2.455,0-4.91,0-7.365c-0.049,0-0.097,0-0.146,0
		c-0.048-0.193-0.096-0.385-0.145-0.578c-0.096-0.048-0.191-0.096-0.288-0.145c0-0.096,0-0.191,0-0.288c-0.048,0-0.097,0-0.145,0
		c0-0.097,0-0.193,0-0.289l-0.288-0.289c0-0.097,0-0.192,0-0.289c-0.097-0.048-0.193-0.096-0.29-0.145
		c-0.048-0.192-0.096-0.385-0.145-0.577c-0.048,0-0.096,0-0.145,0c0-0.096,0-0.192,0-0.289l-0.288-0.289c0-0.096,0-0.192,0-0.288
		c-0.097-0.049-0.192-0.097-0.289-0.145c0-0.097,0-0.193,0-0.289c-0.048,0-0.096,0-0.145,0c0-0.097,0-0.192,0-0.289l-0.289-0.288
		c0-0.097,0-0.193,0-0.289c-0.096-0.049-0.192-0.097-0.288-0.145c0-0.096,0-0.192,0-0.289c-0.048,0-0.097,0-0.145,0
		c0-0.096,0-0.192,0-0.289l-0.289-0.288c0-0.097,0-0.193,0-0.289c-0.097-0.049-0.192-0.096-0.289-0.145c0-0.096,0-0.192,0-0.289
		c-0.048,0-0.096,0-0.145,0c0-0.097,0-0.192,0-0.288c-0.048,0-0.096,0-0.145,0c0-0.097,0-0.193,0-0.289l-0.288-0.29
		c0-0.095,0-0.191,0-0.288c-0.097-0.048-0.192-0.097-0.289-0.145c-0.097-0.288-0.192-0.577-0.289-0.866c-0.048,0-0.096,0-0.144,0
		c0-0.097,0-0.192,0-0.289c-0.097-0.048-0.193-0.097-0.29-0.144c0-0.097,0-0.193,0-0.289c-0.047,0-0.096,0-0.144,0
		c-0.049-0.145-0.097-0.289-0.145-0.434c0.866,0,1.732,0,2.6,0c0.152,0.36,0.402,0.701,0.577,1.011c0,0.097,0,0.193,0,0.289
		c0.097,0.049,0.192,0.096,0.289,0.145c0.096,0.289,0.192,0.577,0.289,0.866c0.048,0,0.096,0,0.144,0c0,0.097,0,0.193,0,0.288
		c0.049,0,0.097,0,0.145,0c0.049,0.193,0.097,0.386,0.145,0.578c0.049,0,0.097,0,0.145,0c0.049,0.193,0.096,0.386,0.146,0.578
		c0.047,0,0.096,0,0.144,0c0,0.096,0,0.192,0,0.289c0.048,0,0.097,0,0.145,0c0,0.096,0,0.192,0,0.288c0.048,0,0.097,0,0.145,0
		c0,0.097,0,0.193,0,0.289c0.048,0,0.097,0,0.144,0c0,0.097,0,0.193,0,0.289c0.049,0,0.097,0,0.145,0
		c0.097,0.289,0.193,0.577,0.29,0.866c0.048,0,0.095,0,0.144,0c0,0.097,0,0.193,0,0.29c0.354,0.661,0.816,1.32,1.012,2.165
		c0.164-0.164,0.057,0,0.144-0.289c0.448-0.408,0.562-1.165,0.866-1.732c0.048,0,0.097,0,0.145,0c0-0.097,0-0.193,0-0.289
		c0.049,0,0.096,0,0.144,0c0-0.097,0-0.192,0-0.289c0.049,0,0.097,0,0.146,0c0-0.096,0-0.191,0-0.288c0.048,0,0.097,0,0.145,0
		c0.048-0.193,0.096-0.386,0.145-0.578c0.048,0,0.097,0,0.145,0c0-0.096,0-0.192,0-0.289c0.047,0,0.096,0,0.144,0
		c0-0.096,0-0.192,0-0.288c0.049,0,0.097,0,0.145,0c0-0.097,0-0.193,0-0.289c0.048,0,0.097,0,0.145,0c0-0.097,0-0.193,0-0.289
		c0.049,0,0.097,0,0.145,0c0.096-0.288,0.192-0.577,0.289-0.866c0.096-0.049,0.192-0.097,0.288-0.146
		c0.049-0.191,0.097-0.385,0.145-0.577C544.863,211.066,545.355,210.456,545.536,209.671z"/>
	<path fill="#FFFFFF" d="M497.446,224.979c0,0.626,0,1.252,0,1.878c-3.562,0-7.125,0-10.687,0c0-0.482,0-0.963,0-1.444
		c0.334-0.192,0.464-0.465,0.722-0.723c0.529-0.48,1.059-0.963,1.589-1.443c0.048-0.097,0.096-0.192,0.145-0.289
		c0.192-0.145,0.386-0.289,0.577-0.434c0.049-0.096,0.097-0.192,0.145-0.289c0.097,0,0.193,0,0.289,0
		c0.241-0.336,0.481-0.673,0.722-1.011c0.529-0.481,1.06-0.962,1.589-1.443c0-0.097,0-0.193,0-0.289
		c0.192-0.145,0.385-0.289,0.578-0.434c0-0.097,0-0.192,0-0.289c0.096-0.048,0.191-0.096,0.288-0.144
		c0.048-0.145,0.097-0.289,0.145-0.434c0.049,0,0.097,0,0.145,0c0-0.096,0-0.192,0-0.289c0.096-0.048,0.192-0.097,0.289-0.145
		c0-0.096,0-0.192,0-0.289c0.271-0.487,1.009-2.063,0.722-3.032c-0.048,0-0.096,0-0.145,0c0-0.24,0-0.48,0-0.722
		c-0.048,0-0.096,0-0.145,0c-0.052-0.249-0.446-1.052-0.576-1.155c-0.097,0-0.193,0-0.29,0c-0.048-0.097-0.097-0.193-0.145-0.289
		c-0.259-0.169-0.324-0.002-0.577-0.289c-1.092-0.033-2.207-0.282-3.178,0.145c0,0.049,0,0.096,0,0.145
		c-0.288,0.096-0.577,0.192-0.866,0.289c-0.048,0.096-0.096,0.192-0.145,0.288c-0.097,0-0.191,0-0.288,0
		c-0.097,0.145-0.192,0.289-0.289,0.434l-0.145-0.145c-0.328-0.291-0.108-0.321-0.289-0.722c-0.048,0-0.096,0-0.145,0
		c-0.097-0.289-0.192-0.578-0.288-0.866c0.17-0.096,0.204-0.232,0.288-0.289c0.097,0,0.192,0,0.289,0
		c0.049-0.097,0.096-0.193,0.145-0.289c0.096,0,0.192,0,0.289,0c0-0.048,0-0.096,0-0.145c0.288-0.097,0.577-0.192,0.866-0.289
		c0-0.048,0-0.097,0-0.144c0.289-0.048,0.577-0.097,0.866-0.145c0-0.049,0-0.097,0-0.145c0.241,0,0.481,0,0.723,0
		c0-0.049,0-0.097,0-0.145c0.666-0.191,2.009,0.001,2.455,0.145c0.191,0,0.385,0,0.577,0c0,0.048,0,0.096,0,0.145
		c0.146,0,0.289,0,0.434,0c0,0.048,0,0.097,0,0.145c0.192,0.047,0.385,0.096,0.577,0.144c0,0.048,0,0.097,0,0.145
		c0.097,0,0.193,0,0.289,0c0.096,0.145,0.192,0.289,0.289,0.434c0.337,0.289,0.674,0.577,1.011,0.866c0,0.097,0,0.193,0,0.289
		c0.048,0,0.097,0,0.145,0c0,0.096,0,0.192,0,0.289c0.048,0,0.097,0,0.145,0c0.166,0.378,0.606,2.283,0.433,2.888
		c-0.048,0-0.096,0-0.145,0c0,0.29,0,0.578,0,0.866c-0.856,2.593-2.737,4.615-4.477,6.354c-0.678,0.678-1.83,1.498-2.311,2.311
		C492.536,224.979,494.991,224.979,497.446,224.979z"/>
	<path fill="#FFFFFF" d="M420.33,212.416c-0.049,0-0.097,0-0.144,0c0-0.097,0-0.193,0-0.289c-0.049,0-0.097,0-0.146,0
		c0-0.096,0-0.192,0-0.289c-1.746-2.779-5.848-2.437-9.82-2.021c0,5.68,0,11.36,0,17.041c0.723,0,1.444,0,2.167,0
		c0-2.312,0-4.622,0-6.933c2.99,0.563,5.483-0.265,6.932-1.732c0.145-0.096,0.289-0.192,0.433-0.289c0-0.097,0-0.192,0-0.289
		c0.097-0.048,0.193-0.096,0.289-0.145c0-0.096,0-0.192,0-0.289c0.049,0,0.097,0,0.146,0c0-0.096,0-0.192,0-0.288
		c0.047,0,0.095,0,0.144,0c0-0.145,0-0.289,0-0.434c0.048,0,0.097,0,0.145,0c0-0.191,0-0.385,0-0.577c0.048,0,0.096,0,0.145,0
		C420.847,215.133,420.517,212.841,420.33,212.416z M418.02,216.314c-0.082,0.32-0.119,0.368-0.289,0.578c-0.048,0-0.096,0-0.145,0
		c0,0.096,0,0.192,0,0.288c-0.145,0.049-0.289,0.097-0.433,0.146c-0.049,0.097-0.097,0.192-0.145,0.288
		c-0.289,0.097-0.578,0.192-0.867,0.289c0,0.049,0,0.097,0,0.145c-0.191,0-0.385,0-0.576,0c0,0.049,0,0.097,0,0.145
		c-1.005,0.007-2.416,0.139-3.178-0.145c0-1.444,0-2.889,0-4.332c0-0.777-0.061-1.756,0.145-2.311
		c0.448,0.013,1.069,0.069,1.299-0.145c0.973-0.015,2.591,0.21,3.178,0.577c0.048,0.097,0.096,0.193,0.145,0.289
		c0.097,0,0.192,0,0.288,0c0,0.049,0,0.096,0,0.145c0.145,0.096,0.289,0.192,0.434,0.289c0,0.096,0,0.192,0,0.288
		c0.048,0,0.097,0,0.145,0c0.048,0.193,0.097,0.386,0.145,0.578c0.048,0,0.097,0,0.145,0c0,0.24,0,0.481,0,0.722
		c0.048,0,0.097,0,0.144,0C418.632,214.755,418.245,216.094,418.02,216.314z"/>
	<path fill="#FFFFFF" d="M586.549,217.614c-1.034-0.121-1.736-0.638-2.889-0.288c-0.24,0-0.48,0-0.722,0c0,0.048,0,0.097,0,0.144
		c-0.145,0-0.288,0-0.433,0c0,0.049,0,0.097,0,0.145c-0.289,0.097-0.578,0.192-0.867,0.289c-0.144,0.193-0.288,0.386-0.434,0.578
		c-0.096,0.048-0.192,0.097-0.289,0.145c0,0.096,0,0.192,0,0.288c-0.095,0.048-0.191,0.097-0.288,0.145c0,0.097,0,0.193,0,0.289
		c-0.049,0-0.097,0-0.145,0c-0.048,0.289-0.097,0.577-0.145,0.866c-0.068,0.194-0.36,1.307-0.289,1.589c0.049,0,0.097,0,0.146,0
		c0,0.386,0,0.77,0,1.155c0.048,0,0.095,0,0.144,0c0,0.145,0,0.289,0,0.433c0.048,0,0.097,0,0.145,0
		c0.048,0.193,0.096,0.386,0.145,0.578c0.048,0,0.097,0,0.145,0c0,0.097,0,0.192,0,0.289c0.24,0.192,0.481,0.385,0.723,0.577
		c0.047,0.097,0.096,0.193,0.144,0.289c0.097,0,0.192,0,0.289,0c0.048,0.096,0.097,0.192,0.144,0.289
		c0.289,0.048,0.579,0.096,0.867,0.145c0,0.048,0,0.096,0,0.145c0.288,0,0.578,0,0.867,0c0,0.048,0,0.096,0,0.144
		c0.24,0,0.48,0,0.721,0c0-0.048,0-0.096,0-0.144c0.386,0,0.771,0,1.155,0c0-0.049,0-0.097,0-0.145
		c0.289-0.049,0.578-0.097,0.867-0.145c0.048,0.385,0.097,0.771,0.145,1.155c-0.164,0.122-0.021-0.019-0.145,0.145
		c-0.519,0.034-0.813,0.188-1.155,0.288c-0.433,0-0.867,0-1.3,0c-2.248,0.002-3.403-0.565-4.333-1.877
		c-0.144-0.096-0.288-0.192-0.433-0.289c0-0.096,0-0.192,0-0.289c-0.048,0-0.097,0-0.145,0c0-0.096,0-0.192,0-0.288
		c-0.048,0-0.096,0-0.145,0c0-0.145,0-0.289,0-0.434c-0.048,0-0.096,0-0.145,0c0-0.145,0-0.289,0-0.434
		c-0.183-0.497-0.554-2.165-0.289-3.032c0.735-2.404,2.245-4.312,5.344-4.332c0.927-0.006,2.446-0.009,2.888,0.433
		C586.631,216.672,586.561,217.189,586.549,217.614z"/>
	<path fill="#FFFFFF" d="M557.522,216.17c0.48,0,0.963,0,1.444,0c0,3.176,0,6.354,0,9.531c1.54,0,3.081,0,4.621,0
		c0,0.385,0,0.77,0,1.155c-2.022,0-4.044,0-6.065,0C557.522,223.294,557.522,219.731,557.522,216.17z"/>
	<path fill="#FFFFFF" d="M568.354,216.17c0.481,0,0.962,0,1.443,0c0,3.176,0,6.354,0,9.531c1.541,0,3.081,0,4.622,0
		c0,0.385,0,0.77,0,1.155c-2.022,0-4.045,0-6.065,0C568.354,223.294,568.354,219.731,568.354,216.17z"/>
	<path fill="#FFFFFF" d="M513.476,217.758c0-0.048,0-0.096,0-0.145c1.116-0.494,2.115-1.342,2.601-2.455c0-0.144,0-0.288,0-0.433
		c0.355-0.973,0.073-2.055-0.289-2.744c0-0.097,0-0.192,0-0.289c-0.337-0.288-0.674-0.577-1.011-0.866
		c-0.097-0.145-0.193-0.289-0.289-0.433c-0.192-0.049-0.385-0.097-0.578-0.145c-1.253-0.67-2.385-0.723-4.332-0.723
		c-0.577,0-1.155,0-1.732,0c0,0.048,0,0.097,0,0.145c-0.578,0.049-1.155,0.097-1.733,0.145c0,5.68,0,11.36,0,17.041
		c2.262,0.061,5.479,0.447,7.364-0.289c0-0.048,0-0.097,0-0.145c0.146,0,0.29,0,0.434,0c0-0.049,0-0.097,0-0.145
		c0.097,0,0.193,0,0.289,0c0-0.048,0-0.096,0-0.145c0.193-0.048,0.385-0.096,0.578-0.145c0.048-0.096,0.096-0.192,0.145-0.288
		c0.096,0,0.192,0,0.288,0c0.145-0.193,0.289-0.386,0.434-0.578c0.096-0.048,0.192-0.096,0.289-0.145c0-0.096,0-0.192,0-0.289
		c0.096-0.048,0.192-0.096,0.288-0.145c0-0.096,0-0.192,0-0.288c0.049,0,0.097,0,0.145,0c0.049-0.192,0.097-0.385,0.145-0.578
		c0.048,0,0.097,0,0.145,0c0-0.192,0-0.385,0-0.578C517.492,220.522,515.46,217.949,513.476,217.758z M508.277,211.405
		c1.266-0.063,2.937-0.34,4.044,0.145c0.515,0.225,0.834,0.736,1.299,1.011c0.049,0.24,0.097,0.481,0.145,0.722
		c0.048,0,0.097,0,0.145,0c0.184,0.566-0.12,1.892-0.289,2.166c-0.096,0.048-0.192,0.097-0.289,0.145
		c-1.024,1.48-2.579,1.361-5.054,1.3C508.277,215.063,508.277,213.233,508.277,211.405z M514.343,223.102
		c-0.286,0.254-0.12,0.318-0.289,0.577c-0.097,0.048-0.192,0.097-0.289,0.145c-0.048,0.145-0.096,0.289-0.145,0.434
		c-0.096,0-0.192,0-0.289,0c-0.048,0.096-0.096,0.192-0.145,0.288c-1.258,0.804-3.137,0.688-4.909,0.578c0-2.166,0-4.332,0-6.498
		c2.858-0.038,5.26,0.175,6.065,2.166c0,0.192,0,0.385,0,0.577C514.553,222.015,514.385,222.391,514.343,223.102z"/>
	<path fill="#FFFFFF" d="M565.176,224.979c0.518-0.002,0.782,0.073,1.155,0.145c0.048,0.145,0.097,0.289,0.145,0.434
		c0.288,0.289,0.1,1.127-0.145,1.3c-0.097,0-0.193,0-0.289,0c0,0.048,0,0.096,0,0.144c-0.288,0-0.577,0-0.866,0
		c-0.162-0.267-0.773-0.887-0.434-1.588C564.743,225.413,565.095,225.118,565.176,224.979z"/>
	<path fill="#FFFFFF" d="M576.007,224.979c0.518-0.002,0.782,0.073,1.155,0.145c0.048,0.145,0.097,0.289,0.144,0.434
		c0.289,0.289,0.101,1.127-0.144,1.3c-0.097,0-0.192,0-0.289,0c0,0.048,0,0.096,0,0.144c-0.288,0-0.577,0-0.866,0
		c-0.162-0.267-0.773-0.887-0.433-1.588C575.574,225.413,575.926,225.118,576.007,224.979z"/>
	<path fill="#FFFFFF" d="M588.571,224.979c0.518-0.002,0.782,0.073,1.154,0.145c0.049,0.145,0.097,0.289,0.145,0.434
		c0.289,0.289,0.101,1.127-0.145,1.3c-0.096,0-0.191,0-0.288,0c0,0.048,0,0.096,0,0.144c-0.288,0-0.577,0-0.866,0
		c-0.162-0.267-0.773-0.887-0.434-1.588C588.138,225.413,588.489,225.118,588.571,224.979z"/>
	<path fill="#FFFFFF" d="M485.564,166.241c0-0.577,0-1.155,0-1.732c-0.048-1.011-0.097-2.022-0.145-3.033
		c-0.288-0.087-0.124,0.02-0.289-0.145c-0.39-0.44,0.128-1.415-0.145-2.021c-0.096-0.049-0.192-0.097-0.288-0.145
		c0-0.097,0-0.192,0-0.289c-0.048,0-0.097,0-0.145,0c0-0.097,0-0.192,0-0.289c-0.049,0-0.097,0-0.145,0c0-0.626,0-1.251,0-1.877
		c-0.193-0.096-0.385-0.192-0.577-0.289c0-0.625,0-1.251,0-1.877c-0.049,0-0.097,0-0.146,0c0.049-0.096,0.097-0.192,0.146-0.289
		c-0.049,0-0.097,0-0.146,0c-0.048-0.385-0.097-0.77-0.144-1.155c-0.048,0-0.097,0-0.145,0c-0.097-0.289-0.192-0.578-0.289-0.866
		c-0.192-0.048-0.386-0.096-0.578-0.145c0,0.048,0,0.096,0,0.145c-0.048,0-0.096,0-0.144,0c0-0.048,0-0.096,0-0.145
		c-0.27-0.046-0.489,0.184-0.578,0.145c0-0.048,0-0.096,0-0.145c-0.993-0.007-0.775,0.161-1.011,0.866c-0.097,0-0.192,0-0.289,0
		c-0.145,1.204-0.289,2.407-0.434,3.611c-0.192,0.048-0.385,0.096-0.577,0.144c0,0.722,0,1.444,0,2.166
		c-0.145,0.097-0.289,0.192-0.434,0.289c0,0.192,0,0.385,0,0.577c-0.048,0-0.096,0-0.145,0c0.049,0.289,0.097,0.578,0.145,0.867
		c-0.048,0-0.096,0-0.145,0c0,0.288,0,0.577,0,0.866c-0.047,0-0.096,0-0.144,0c0,0.097,0,0.192,0,0.288c-0.049,0-0.097,0-0.145,0
		c-0.048,0.481-0.097,0.964-0.145,1.445c-0.049,0-0.097,0-0.145,0c0,0.625,0,1.252,0,1.877c0,1.589,0,3.178,0,4.766
		c0,0.192,0,0.385,0,0.577c0.048,0,0.096,0,0.145,0c0,0.049,0,0.097,0,0.145c-0.347,5.758-0.104,12.454-0.145,18.196
		c-0.547-0.097-3.071-0.368-3.755-0.145c0,0.049,0,0.097,0,0.145c-0.145,0-0.289,0-0.434,0c-0.048,0.097-0.096,0.192-0.144,0.289
		c-0.097,0-0.193,0-0.289,0c0,0.049,0,0.097,0,0.145c-0.145,0-0.289,0-0.434,0c0,0.048,0,0.097,0,0.145c-1.588,0-3.178,0-4.766,0
		c-0.048-1.3-0.097-2.601-0.145-3.899c-0.048,0-0.097,0-0.144,0c-0.143-0.51,0.141-1.119-0.145-1.444c0-0.048,0-0.096,0-0.145
		c-0.049,0-0.097,0-0.145,0c0,0.049,0,0.097,0,0.145c-0.145,0.048-0.29,0.097-0.434,0.145c0,0.192,0,0.385,0,0.577
		c-1.43-0.001-3.131-0.07-4.332,0.145c0.012-0.832,0.11-2.479,0-2.888c-0.049,0-0.097,0-0.145,0c0-0.24,0-0.481,0-0.722
		c-0.049,0-0.096,0-0.145,0c0-0.097,0-0.193,0-0.289c-0.048,0-0.097,0-0.145,0c-0.15,0.311-0.014,0.264-0.289,0.433
		c-0.176-0.396-0.477-1.134-0.288-1.877c0.048,0,0.096,0,0.145,0c-0.049-0.145-0.097-0.289-0.145-0.434c0.048,0,0.096,0,0.145,0
		c-0.049-0.674-0.097-1.348-0.145-2.021c-0.097,0-0.193,0-0.289,0c0,0.145,0,0.289,0,0.434c-0.178-0.199-0.255-2.129-0.146-2.6
		c0.011-0.042,0.198-0.041,0.146-0.289c-0.049,0-0.097,0-0.146,0c-0.047-0.241-0.096-0.481-0.144-0.722
		c-0.241-0.193-0.481-0.386-0.722-0.578c0.048-0.289,0.096-0.577,0.144-0.866c-0.048,0-0.096,0-0.144,0
		c-0.097-0.818-0.193-1.637-0.289-2.455c-0.097,0-0.192,0-0.289,0c-0.048,0.577-0.097,1.155-0.145,1.733c-0.048,0-0.097,0-0.144,0
		c0,0.192,0,0.385,0,0.577c-0.05,0-0.097,0-0.145,0c0,0.385,0,0.771,0,1.155c-0.146,0.097-0.289,0.192-0.435,0.289
		c-0.047,0.192-0.096,0.385-0.144,0.577c-0.048,0-0.097,0-0.145,0c0,1.06,0,2.118,0,3.178c-0.048,0-0.097,0-0.145,0
		c0-0.145,0-0.289,0-0.434c-0.048,0-0.097,0-0.144,0c-0.246,0.637-0.349,1.485-0.29,2.455c0.049,0.145,0.097,0.288,0.146,0.434
		c-0.049,0-0.097,0-0.146,0c-0.062,0.643,0.406,0.789-0.144,1.3c-0.124,0.162,0.019,0.021-0.146,0.144
		c-0.047-0.144-0.096-0.288-0.144-0.433c-0.097,0-0.192,0-0.289,0c0,1.251,0,2.503,0,3.754c-0.747,0.009-3.632,0.095-3.754,0
		c-0.943-0.048-0.545-0.294-1.012-0.722c-0.163-0.162,0.002-0.062-0.289-0.145c-0.133,0.35-0.155,0.896-0.144,1.444
		c-0.193,0.048-0.386,0.097-0.578,0.145c0.025,0.758,0.205,1.207,0.433,1.733c0,0.048,0,0.096,0,0.145c-0.048,0-0.095,0-0.145,0
		c0.142,0.678,0.133,1.331,0,2.021c-1.636,0-3.272,0-4.909,0c0-0.048,0-0.097,0-0.145c-0.097,0-0.192,0-0.289,0
		c0-0.048,0-0.096,0-0.145c-0.097,0-0.192,0-0.289,0c-0.372-0.196-0.647-0.47-1.155-0.577c-0.333-1.907-0.289-4.347-0.289-6.644
		c0-0.963,0-1.926,0-2.889c-0.048,0-0.096,0-0.145,0l0.145-0.144c-0.048-0.145-0.096-0.289-0.145-0.434c0.049,0,0.097,0,0.145,0
		c0-1.589,0-3.178,0-4.766c-0.152-0.585-0.154-3.111-0.145-4.766c-0.745-0.044-0.7-0.308-1.155-0.578
		c-0.093-0.449-0.246-0.645-0.288-1.155c-1.463-0.267-4.168-0.167-5.199,0c-0.007,1.143-0.553,1.64-1.3,2.022
		c0,4.572,0,9.146,0,13.719c0,1.562-0.183,5.195,0.027,6.177c-0.319,0.121-0.669,0.044-1.182,0.033c0-4.284,0-8.568,0-12.853
		c0-1.721-0.175-5.021,0-5.777c0-2.262,0-4.524,0-6.787c-0.049-0.289-0.097-0.577-0.146-0.866c0.193-1.107,0.386-2.215,0.578-3.321
		c-0.529,0-1.059,0-1.589,0c-0.004-0.515,0.023-0.978,0.145-1.3c-0.048,0-0.096,0-0.145,0c0-0.049,0-0.097,0-0.145
		c-0.192,0-0.385,0-0.577,0c-0.145-0.192-0.289-0.385-0.434-0.578c-0.048,0-0.096,0-0.145,0c0-0.096,0-0.192,0-0.288
		c-0.336-0.289-0.674-0.578-1.011-0.867c-0.303-0.418-0.225-0.574-0.722-0.867c0-0.048,0-0.096,0-0.145c-0.049,0-0.097,0-0.145,0
		c-0.77,0.915-1.541,1.829-2.311,2.744c-0.145,0-0.289,0-0.434,0c0,0.048,0,0.096,0,0.145c-0.048,0-0.097,0-0.145,0
		c0,0.433,0,0.866,0,1.3c-0.529,0-1.059,0-1.588,0c0.181,0.497,0.148,1.842,0.433,2.166c0,3.803,0,7.606,0,11.408
		c0,1.3,0,2.6,0,3.899c-0.385,0.145-0.771,0.289-1.155,0.434c-0.242,1.159-0.6,2.414-0.577,3.899c-0.145,0-0.289,0-0.434,0
		c0-0.049,0-0.097,0-0.145c-0.048,0-0.096,0-0.145,0c0.049-0.097,0.097-0.193,0.145-0.289c-0.048,0-0.096,0-0.145,0
		c0-0.434,0-0.866,0-1.3c-0.048,0-0.096,0-0.145,0c0-0.145,0-0.289,0-0.434c-0.096-0.048-0.191-0.096-0.288-0.145
		c0-0.192,0-0.385,0-0.577c-0.049,0-0.097,0-0.145,0c0.048-1.252,0.096-2.504,0.145-3.755c-0.049,0-0.097,0-0.145,0
		c0-0.337,0-0.674,0-1.011c-0.049,0-0.097,0-0.145,0c0-0.145,0-0.289,0-0.434c-0.049,0-0.097,0-0.145,0c0-0.145,0-0.288,0-0.433
		c-0.049,0-0.096,0-0.145,0c0-0.386,0-0.771,0-1.155c-0.096-0.049-0.192-0.097-0.289-0.145c0-0.192,0-0.386,0-0.578
		c-0.048,0-0.096,0-0.145,0c-0.201-0.44-0.243-0.854-0.577-1.155c-0.123-0.163,0.019-0.022-0.145-0.145
		c-0.325,0.707-0.761,1.544-1.011,2.311c0,0.386,0,0.771,0,1.155c-0.049,0-0.096,0-0.145,0c0,0.097,0,0.192,0,0.289
		c-0.096,0.049-0.192,0.097-0.289,0.145c0,1.877,0,3.755,0,5.632c-0.145,0.097-0.288,0.192-0.433,0.289
		c-0.049,0.626-0.097,1.252-0.145,1.878c-0.578,0.048-1.155,0.096-1.733,0.144c0,3.226,0,6.451,0,9.676
		c-0.402,0.091-0.69,0.329-1.011,0.434c-0.915,0-1.829,0-2.744,0c0-0.771,0-1.54,0-2.311c0.308-1.23,0.145-4.396,0.145-6.354
		c0-0.947,0.055-2.171-0.145-2.888c-0.34-1.226,0.559-2.564-0.144-3.322c-0.049-0.145-0.097-0.288-0.145-0.433
		c-0.819,0-1.637,0-2.455,0c0-0.049,0-0.097,0-0.145c-0.145,0-0.289,0-0.434,0c0-0.049,0-0.097,0-0.145
		c-0.471-0.15-1.861,0.026-2.167,0.145c0,0.048,0,0.096,0,0.145c-0.095,0-0.191,0-0.288,0c0,0.048,0,0.096,0,0.145
		c-0.145-0.049-0.289-0.097-0.433-0.145c0-0.049,0-0.097,0-0.145c-0.338,0.048-0.675,0.096-1.012,0.145c0,0.048,0,0.096,0,0.145
		c-0.144,0.048-0.288,0.096-0.433,0.144c0,1.686,0,3.37,0,5.055c-0.289,0-0.578,0-0.866,0c0,3.61,0,7.222,0,10.831
		c-1.429-0.006-4.425-0.248-5.488,0.145c0,1.781,0,3.562,0,5.344c0,0.893-0.099,2.082,0.145,2.743c27.82,0,55.649,0,83.471,0
		c0-11.455,0-22.914,0-34.37C485.661,166.241,485.612,166.241,485.564,166.241z M469.299,192.547h-0.742v-0.022
		c-0.011,0-0.022,0-0.032,0c-0.001-0.358,0.01-0.716,0.032-1.05v-0.907h0.102c0-0.002,0-0.002,0-0.003h0.208
		c0.001,0.001,0.005,0.001,0.007,0.003h0.426V192.547L469.299,192.547z M470.7,192.547h-0.782v-1.982h0.443
		c0.003,0.001,0.007,0.001,0.011,0.003h0.328v0.215c0.003,0.036,0.006,0.072,0.009,0.108v1.634c-0.003,0-0.006,0-0.009,0V192.547z
		 M472.134,192.524c-0.011,0-0.021,0-0.032,0v0.023h-0.742v-1.98h0.396c0.001-0.002,0.001-0.002,0.001-0.003h0.128
		c0.001,0.001,0.002,0.002,0.002,0.003h0.216v0.204"/>
</g>
</svg>
